<svg xmlns="http://www.w3.org/2000/svg" viewBox="0 0 31 31"><defs><style>.cls-1{fill:#fff;fill-opacity:0;stroke:#040707;stroke-linejoin:round;}.cls-2{fill:#040707;}</style></defs><title>icon_user_product_write_review</title><g id="Layer_2" data-name="Layer 2"><g id="Layer_1-2" data-name="Layer 1"><circle id="Ellipse" class="cls-1" cx="15.5" cy="15.5" r="15"/><path id="icon_user_product_write_review" data-name="icon user product write review" class="cls-2" d="M22.2,20.13l-.05.07a8.34,8.34,0,0,1-13.29,0l-.05-.07v-.08A6.87,6.87,0,0,1,12.1,15l.13-.07.1.1a4.36,4.36,0,0,0,6.17.18l.18-.18.1-.1.13.07a6.87,6.87,0,0,1,3.28,5.06Zm-6.7-4.64a4,4,0,1,0-4-4h0a4,4,0,0,0,4,4Z"/></g></g></svg>