<svg xmlns="http://www.w3.org/2000/svg" width="70" height="48" viewBox="0 0 70 48">
  <metadata><?xpacket begin="﻿" id="W5M0MpCehiHzreSzNTczkc9d"?>
<x:xmpmeta xmlns:x="adobe:ns:meta/" x:xmptk="Adobe XMP Core 5.6-c138 79.159824, 2016/09/14-01:09:01        ">
   <rdf:RDF xmlns:rdf="http://www.w3.org/1999/02/22-rdf-syntax-ns#">
      <rdf:Description rdf:about=""/>
   </rdf:RDF>
</x:xmpmeta>
                                                                                                    
                                                                                                    
                                                                                                    
                                                                                                    
                                                                                                    
                                                                                                    
                                                                                                    
                                                                                                    
                                                                                                    
                                                                                                    
                                                                                                    
                                                                                                    
                                                                                                    
                                                                                                    
                                                                                                    
                                                                                                    
                                                                                                    
                                                                                                    
                                                                                                    
                                                                                                    
                           
<?xpacket end="w"?></metadata>
<defs>
    <style>
      .cls-1 {
        fill: #040707;
        fill-rule: evenodd;
      }
    </style>
  </defs>
  <path id="icon_delivery_product" class="cls-1" d="M504.83,2886.82a7.34,7.34,0,1,0,7.3,7.34A7.328,7.328,0,0,0,504.83,2886.82Zm0,12.45a5.11,5.11,0,1,1,5.084-5.11A5.1,5.1,0,0,1,504.83,2899.27Zm0-8.18a3.07,3.07,0,1,0,3.051,3.07A3.063,3.063,0,0,0,504.83,2891.09Zm37.333-4.27a7.34,7.34,0,1,0,7.3,7.34A7.328,7.328,0,0,0,542.163,2886.82Zm0,12.45a5.11,5.11,0,1,1,5.084-5.11A5.1,5.1,0,0,1,542.163,2899.27Zm0-8.18a3.07,3.07,0,1,0,3.051,3.07A3.063,3.063,0,0,0,542.163,2891.09Zm13.929-18.92-6.124-2.58c-0.78-1.4-3.746-6.57-6.077-8.6a1.1,1.1,0,0,0-.728-0.28h-9.081v-6.1a1.111,1.111,0,0,0-1.109-1.11H488.305a1.111,1.111,0,0,0-1.109,1.11v27.23a1.113,1.113,0,0,0,1.109,1.12h1.927v8.13a1.113,1.113,0,0,0,1.109,1.12h4.891a1.115,1.115,0,0,0,1.045-.74,8,8,0,0,1,15.107,0,1.113,1.113,0,0,0,1.045.74h20.136a1.115,1.115,0,0,0,1.045-.74,8,8,0,0,1,15.106,0,1.115,1.115,0,0,0,1.045.74h4.9a1.114,1.114,0,0,0,1.109-1.12V2873.2A1.113,1.113,0,0,0,556.092,2872.17Zm-21.993-9.23h8.631c2.328,2.28,5.449,8,5.481,8.06a1.1,1.1,0,0,0,.545.5l5.8,2.44v6.91H534.1v-17.91Zm-44.685-3.96h2.8v18.58h-2.8v-18.58Zm4.23,0h2.981v18.58h-2.981v-18.58Zm4.407,0h2.982v18.58h-2.982v-18.58Zm4.408,0h2.982v18.58h-2.982v-18.58Zm4.408,0h2.982v18.58h-2.982v-18.58Zm4.408,0h2.982v18.58h-2.982v-18.58Zm4.408,0h2.982v18.58h-2.982v-18.58Zm4.408,0h2.981v18.58h-2.981v-18.58Zm4.408,0h2.981v18.58H524.5v-18.58Zm4.407,0h2.958v18.58h-2.958v-18.58Zm-39.492-3.25h42.45v1.66h-42.45v-1.66Zm0,25v-1.58h42.45v1.58h-42.45Zm65.14,9.25h-3.043a10.206,10.206,0,0,0-18.7,0H514.178a10.206,10.206,0,0,0-18.7,0H492.45v-6.9h62.1v6.9Zm-13.262-25.11H535.45v6.96h10.785l-0.058-.1A48.132,48.132,0,0,0,541.292,2864.87Zm-4.272,10.89h3.512v-1.28H537.02v1.28Z" transform="translate(-486.984 -2853.5)"/>
</svg>
