<svg xmlns="http://www.w3.org/2000/svg" width="32" height="32" viewBox="0 0 32 32">
  <metadata><?xpacket begin="﻿" id="W5M0MpCehiHzreSzNTczkc9d"?>
<x:xmpmeta xmlns:x="adobe:ns:meta/" x:xmptk="Adobe XMP Core 5.6-c138 79.159824, 2016/09/14-01:09:01        ">
   <rdf:RDF xmlns:rdf="http://www.w3.org/1999/02/22-rdf-syntax-ns#">
      <rdf:Description rdf:about=""/>
   </rdf:RDF>
</x:xmpmeta>
                                                                                                    
                                                                                                    
                                                                                                    
                                                                                                    
                                                                                                    
                                                                                                    
                                                                                                    
                                                                                                    
                                                                                                    
                                                                                                    
                                                                                                    
                                                                                                    
                                                                                                    
                                                                                                    
                                                                                                    
                                                                                                    
                                                                                                    
                                                                                                    
                                                                                                    
                                                                                                    
                           
<?xpacket end="w"?></metadata>
<defs>
    <style>
      .cls-1 {
        fill: #fff;
        fill-rule: evenodd;
      }
    </style>
  </defs>
  <path id="icon_sale" class="cls-1" d="M321.451,290.547a1.889,1.889,0,0,0-1.39-.552l-11.888.351a1.883,1.883,0,0,0-1.279.552l-16.345,16.345a1.887,1.887,0,0,0,0,2.669l11.538,11.537a1.886,1.886,0,0,0,2.668,0L321.1,305.1a1.881,1.881,0,0,0,.552-1.279L322,291.937A1.888,1.888,0,0,0,321.451,290.547ZM317.505,304.5l-13.842,13.841a0.505,0.505,0,0,1-.717,0l-9.292-9.292a0.507,0.507,0,0,1,0-.717L307.5,294.493a0.507,0.507,0,0,1,.717,0l9.292,9.292A0.508,0.508,0,0,1,317.505,304.5Zm1.746-9.215a1.8,1.8,0,1,1,0-2.541A1.8,1.8,0,0,1,319.251,295.288ZM302.21,305.469a2.1,2.1,0,0,0-1.6.733,2.153,2.153,0,0,0-.735,1.605,3.354,3.354,0,0,0,2.631,2.646,2.148,2.148,0,0,0,1.611-.744,2.11,2.11,0,0,0,.722-1.593A3.4,3.4,0,0,0,302.21,305.469Zm1.9-2.561,2.561,8.195,0.953-.954-2.56-8.194Zm5.143-.307a2.1,2.1,0,0,0-1.6.734,2.143,2.143,0,0,0-.735,1.605,2.653,2.653,0,0,0,.915,1.724,2.683,2.683,0,0,0,1.716.921,2.147,2.147,0,0,0,1.61-.744,2.108,2.108,0,0,0,.723-1.592A3.4,3.4,0,0,0,309.252,302.6Zm-5.957,5.282a1.554,1.554,0,0,1,.222.37,0.607,0.607,0,0,1,.033.358,0.833,0.833,0,0,1-.542.538,0.58,0.58,0,0,1-.354-0.032,1.3,1.3,0,0,1-.381-0.223c-0.114-.1-0.261-0.231-0.439-0.409a5.777,5.777,0,0,1-.394-0.437,1.466,1.466,0,0,1-.238-0.39,0.639,0.639,0,0,1-.034-0.353,0.707,0.707,0,0,1,.207-0.334,0.732,0.732,0,0,1,.331-0.2,0.6,0.6,0,0,1,.352.027,1.451,1.451,0,0,1,.392.237q0.207,0.168.435,0.395A4.88,4.88,0,0,1,303.3,307.883Zm7.042-2.867a1.534,1.534,0,0,1,.222.37,0.6,0.6,0,0,1,.033.357,0.714,0.714,0,0,1-.2.333,0.726,0.726,0,0,1-.34.206,0.59,0.59,0,0,1-.354-0.033,1.349,1.349,0,0,1-.381-0.222q-0.171-.142-0.438-0.41a5.233,5.233,0,0,1-.394-0.437,1.415,1.415,0,0,1-.238-0.39,0.637,0.637,0,0,1-.035-0.352,0.7,0.7,0,0,1,.208-0.334,0.716,0.716,0,0,1,.33-0.2,0.582,0.582,0,0,1,.352.027,1.456,1.456,0,0,1,.392.236,5.358,5.358,0,0,1,.435.4A4.625,4.625,0,0,1,310.337,305.016Z" transform="translate(-290 -290)"/>
</svg>
