<svg xmlns="http://www.w3.org/2000/svg" width="34.062" height="24" viewBox="0 0 34.062 24">
  <metadata><?xpacket begin="﻿" id="W5M0MpCehiHzreSzNTczkc9d"?>
<x:xmpmeta xmlns:x="adobe:ns:meta/" x:xmptk="Adobe XMP Core 5.6-c138 79.159824, 2016/09/14-01:09:01        ">
   <rdf:RDF xmlns:rdf="http://www.w3.org/1999/02/22-rdf-syntax-ns#">
      <rdf:Description rdf:about=""/>
   </rdf:RDF>
</x:xmpmeta>
                                                                                                    
                                                                                                    
                                                                                                    
                                                                                                    
                                                                                                    
                                                                                                    
                                                                                                    
                                                                                                    
                                                                                                    
                                                                                                    
                                                                                                    
                                                                                                    
                                                                                                    
                                                                                                    
                                                                                                    
                                                                                                    
                                                                                                    
                                                                                                    
                                                                                                    
                                                                                                    
                           
<?xpacket end="w"?></metadata>
<defs>
    <style>
      .cls-1 {
        fill: #040707;
        fill-rule: evenodd;
      }
    </style>
  </defs>
  <path id="icon_video" class="cls-1" d="M808.712,896.567c-1.231-1.463-3.5-2.059-7.839-2.059H785.127c-4.437,0-6.747.635-7.972,2.192-1.195,1.518-1.195,3.754-1.195,6.85v5.9c0,6,1.418,9.042,9.167,9.042h15.746c3.761,0,5.846-.527,7.194-1.817,1.383-1.324,1.973-3.484,1.973-7.225v-5.9C810.04,900.285,809.947,898.035,808.712,896.567Zm-10.873,10.747-7.15,3.737a1.1,1.1,0,0,1-1.608-.974v-7.45a1.1,1.1,0,0,1,1.606-.975l7.15,3.712A1.1,1.1,0,0,1,797.839,907.314Z" transform="translate(-775.969 -894.5)"/>
</svg>
