<svg xmlns="http://www.w3.org/2000/svg" width="32" height="32" viewBox="0 0 32 32">
  <metadata><?xpacket begin="﻿" id="W5M0MpCehiHzreSzNTczkc9d"?>
<x:xmpmeta xmlns:x="adobe:ns:meta/" x:xmptk="Adobe XMP Core 5.6-c138 79.159824, 2016/09/14-01:09:01        ">
   <rdf:RDF xmlns:rdf="http://www.w3.org/1999/02/22-rdf-syntax-ns#">
      <rdf:Description rdf:about=""/>
   </rdf:RDF>
</x:xmpmeta>
                                                                                                    
                                                                                                    
                                                                                                    
                                                                                                    
                                                                                                    
                                                                                                    
                                                                                                    
                                                                                                    
                                                                                                    
                                                                                                    
                                                                                                    
                                                                                                    
                                                                                                    
                                                                                                    
                                                                                                    
                                                                                                    
                                                                                                    
                                                                                                    
                                                                                                    
                                                                                                    
                           
<?xpacket end="w"?></metadata>
<defs>
    <style>
      .cls-1 {
        fill: #fff;
        fill-rule: evenodd;
      }
    </style>
  </defs>
  <path id="icon_living_room" class="cls-1" d="M244.865,244.337h-1.6v-5.869a0.534,0.534,0,0,0-.534-0.533H225.673a0.533,0.533,0,0,0-.533.533v5.869h-1.6a0.533,0.533,0,0,0-.533.533v8.536a0.533,0.533,0,0,0,.533.534h1.6v1.067h1.066V253.94H242.2v1.067h1.067V253.94h1.6a0.534,0.534,0,0,0,.533-0.534V244.87A0.533,0.533,0,0,0,244.865,244.337Zm-16.526,8.536h-4.265V245.4h4.265v7.469Zm10.662,0h-9.6v-4.268H239v4.268Zm0-8v2.668h-9.6V244.87a0.533,0.533,0,0,0-.533-0.533h-2.666V239H242.2v5.335h-2.665A0.533,0.533,0,0,0,239,244.87Zm5.331,8h-4.265V245.4h4.265v7.469Zm10.657-19.8-1.067-9.6A0.532,0.532,0,0,0,253.4,223h-7.464a0.533,0.533,0,0,0-.533.475l-1.066,9.6a0.525,0.525,0,0,0,.533.592h4.265v18.139H247a0.533,0.533,0,0,0-.533.533v2.134a0.534,0.534,0,0,0,.533.534h5.331a0.533,0.533,0,0,0,.533-0.534v-2.134a0.533,0.533,0,0,0-.533-0.533H250.2V233.667h4.265A0.524,0.524,0,0,0,254.989,233.075Zm-3.194,19.8v1.067H247.53v-1.067H251.8ZM245.462,232.6l0.949-8.536h6.5l0.949,8.536h-8.4Zm-4.329-6.4H237.62l-3.039-3.046a0.532,0.532,0,0,0-.754,0l0,0-3.038,3.046h-3.514a0.533,0.533,0,0,0-.533.533v8.536a0.534,0.534,0,0,0,.533.534h13.861a0.533,0.533,0,0,0,.533-0.534v-8.536A0.533,0.533,0,0,0,241.133,226.2Zm-6.93-1.915,1.914,1.915h-3.828Zm6.4,10.451H227.806v-7.469H240.6v7.469Zm-11.728-6.4v5.335h10.662v-5.335H228.872Zm9.6,4.268h-8.53v-3.2h8.53v3.2Z" transform="translate(-223 -223)"/>
</svg>
