<svg xmlns="http://www.w3.org/2000/svg" width="38.563" height="32" viewBox="0 0 38.563 32">
  <metadata><?xpacket begin="﻿" id="W5M0MpCehiHzreSzNTczkc9d"?>
<x:xmpmeta xmlns:x="adobe:ns:meta/" x:xmptk="Adobe XMP Core 5.6-c138 79.159824, 2016/09/14-01:09:01        ">
   <rdf:RDF xmlns:rdf="http://www.w3.org/1999/02/22-rdf-syntax-ns#">
      <rdf:Description rdf:about=""/>
   </rdf:RDF>
</x:xmpmeta>
                                                                                                    
                                                                                                    
                                                                                                    
                                                                                                    
                                                                                                    
                                                                                                    
                                                                                                    
                                                                                                    
                                                                                                    
                                                                                                    
                                                                                                    
                                                                                                    
                                                                                                    
                                                                                                    
                                                                                                    
                                                                                                    
                                                                                                    
                                                                                                    
                                                                                                    
                                                                                                    
                           
<?xpacket end="w"?></metadata>
<defs>
    <style>
      .cls-1 {
        fill: #fff;
        fill-rule: evenodd;
      }
    </style>
  </defs>
  <path id="icon_work_place" class="cls-1" d="M36.544,48.339h4.518a0.9,0.9,0,0,0,.848-0.6H41.664a1.51,1.51,0,0,1-1.506-1.509V44.717H35.339v1.509a1.51,1.51,0,0,1-1.506,1.509H33.587a0.9,0.9,0,0,0,.848.6h2.108Zm16.414,3.622H49.946a0.868,0.868,0,0,1-.753-0.905,0.983,0.983,0,0,1,.051-0.3h-2.46v3.622h9.035V50.754H53.66a0.989,0.989,0,0,1,.05.3A0.868,0.868,0,0,1,52.958,51.961Zm0-6.64H49.946a0.868,0.868,0,0,1-.753-0.906,0.983,0.983,0,0,1,.051-0.3h-2.46v3.622h9.035V44.113H53.66a0.989,0.989,0,0,1,.05.3A0.868,0.868,0,0,1,52.958,45.321ZM57.626,42.3H44.977V58h1.2V56.187h10.24V58h1.2V47.132H69.07V58h1.2V42.3H57.626Zm-1.2,12.677H46.181V50.15h10.24v4.829Zm0-10.866v4.226H46.181V43.51h10.24v0.6ZM69.07,45.924H57.626V44.113H69.07v1.811ZM59.433,38.68v1.207h-1.2v1.207h9.035V39.888h-1.2V38.68H59.433Zm-4.216-.6H70.275V26H55.216V38.077Zm7.831-.906a0.755,0.755,0,1,1,.753-0.755A0.754,0.754,0,0,1,63.047,37.171ZM56.421,27.21H69.07v7.848H56.421V27.21ZM45.579,41.7h8.433V27.21H45.579V41.7ZM52.2,39.888a0.83,0.83,0,1,1,.828-0.83A0.83,0.83,0,0,1,52.2,39.888Zm-4.216-7.244v-0.6H51.6v0.6H47.988Zm-1.2-3.622h6.023v1.207H46.784V29.021ZM40.158,44.113V43.208A1.51,1.51,0,0,1,41.664,41.7h0.3V31.134a0.951,0.951,0,0,0-.99-0.905H34.522a0.952,0.952,0,0,0-.99.906V41.7h0.3a1.51,1.51,0,0,1,1.506,1.509v0.905h4.819Zm-6.626,3.018h0.3a0.906,0.906,0,0,0,.9-0.905V43.208a0.906,0.906,0,0,0-.9-0.906h-1.2a0.906,0.906,0,0,0-.9.906v3.018a0.906,0.906,0,0,0,.9.905h0.9Zm9.035,0h0.3a0.906,0.906,0,0,0,.9-0.905V43.51a1.206,1.206,0,0,0-1.2-1.207h-0.9a0.906,0.906,0,0,0-.9.906v3.018a0.906,0.906,0,0,0,.9.905h0.9Zm-0.452,8.15a0.981,0.981,0,1,0-.755-1.6l-2.407-.5-0.6-.126V48.943h-1.2v4.039l-0.6.165-2.847.778H33.683a0.964,0.964,0,0,0-.5.142l-0.11.03,0.011,0.039a0.978,0.978,0,1,0,1.578.779l1.882-.516,0.316-.086-0.316.3-1.2,1.139a0.988,0.988,0,1,0,1.07.647l1.494-1.414,1.441,1.565a0.937,0.937,0,0,0-.017.167,0.979,0.979,0,1,0,.979-0.981c-0.023,0-.044.005-0.066,0.007l-1.206-1.31,2.323,0.485A0.971,0.971,0,0,0,42.115,55.281Z" transform="translate(-31.719 -26)"/>
</svg>
