<svg xmlns="http://www.w3.org/2000/svg" width="17.438" height="16" viewBox="0 0 17.438 16">
  <metadata><?xpacket begin="﻿" id="W5M0MpCehiHzreSzNTczkc9d"?>
<x:xmpmeta xmlns:x="adobe:ns:meta/" x:xmptk="Adobe XMP Core 5.6-c138 79.159824, 2016/09/14-01:09:01        ">
   <rdf:RDF xmlns:rdf="http://www.w3.org/1999/02/22-rdf-syntax-ns#">
      <rdf:Description rdf:about=""/>
   </rdf:RDF>
</x:xmpmeta>
                                                                                                    
                                                                                                    
                                                                                                    
                                                                                                    
                                                                                                    
                                                                                                    
                                                                                                    
                                                                                                    
                                                                                                    
                                                                                                    
                                                                                                    
                                                                                                    
                                                                                                    
                                                                                                    
                                                                                                    
                                                                                                    
                                                                                                    
                                                                                                    
                                                                                                    
                                                                                                    
                           
<?xpacket end="w"?></metadata>
<defs>
    <style>
      .cls-1 {
        fill-rule: evenodd;
      }
    </style>
  </defs>
  <path id="icon_calendar" class="cls-1" d="M326.07,1063.55v-2.16h-4.74v-0.9h-1.08v0.9h-3.66v-0.9h-1.08v0.9h-4.74v12.96h2.16v2.16h15.3v-12.96h-2.16Zm-10.56-1.08v0.9h1.08v-0.9h3.66v0.72h1.08v-0.72h3.66v1.8H311.85v-1.8h3.66Zm-3.66,2.88h13.14v7.92H311.85v-7.92Zm15.3,10.08H314.01v-1.08h12.06v-9.72h1.08v10.8Zm-12.87-5.4h1.8v1.8h-1.8v-1.8Zm3.24,0h1.8v1.8h-1.8v-1.8Zm3.24,0h1.8v1.8h-1.8v-1.8Zm-3.24-3.24h1.8v1.8h-1.8v-1.8Zm3.24,0h1.8v1.8h-1.8v-1.8Zm-6.48,0h1.8v1.8h-1.8v-1.8Z" transform="translate(-310.781 -1060.5)"/>
</svg>
