<svg xmlns="http://www.w3.org/2000/svg" width="40" height="40" viewBox="0 0 40 40">
  <metadata><?xpacket begin="﻿" id="W5M0MpCehiHzreSzNTczkc9d"?>
<x:xmpmeta xmlns:x="adobe:ns:meta/" x:xmptk="Adobe XMP Core 5.6-c138 79.159824, 2016/09/14-01:09:01        ">
   <rdf:RDF xmlns:rdf="http://www.w3.org/1999/02/22-rdf-syntax-ns#">
      <rdf:Description rdf:about=""/>
   </rdf:RDF>
</x:xmpmeta>
                                                                                                    
                                                                                                    
                                                                                                    
                                                                                                    
                                                                                                    
                                                                                                    
                                                                                                    
                                                                                                    
                                                                                                    
                                                                                                    
                                                                                                    
                                                                                                    
                                                                                                    
                                                                                                    
                                                                                                    
                                                                                                    
                                                                                                    
                                                                                                    
                                                                                                    
                                                                                                    
                           
<?xpacket end="w"?></metadata>
<defs>
    <style>
      .cls-1 {
        fill-rule: evenodd;
      }
    </style>
  </defs>
  <path id="icon_info_delivery" class="cls-1" d="M353.5,383.422a2.017,2.017,0,1,0-2.016-2.013A2.017,2.017,0,0,0,353.5,383.422Zm3.578,13.3h-2.144v-8.036a1.434,1.434,0,0,0-1.434-1.434h-3.578a1.435,1.435,0,0,0,0,2.869h2.144v8.035a1.435,1.435,0,0,0,1.434,1.435h3.578A1.435,1.435,0,0,0,357.078,396.724ZM353.5,369.488A20.012,20.012,0,1,0,373.512,389.5,20.034,20.034,0,0,0,353.5,369.488Zm0,37.156A17.144,17.144,0,1,1,370.644,389.5,17.164,17.164,0,0,1,353.5,406.644Z" transform="translate(-333.5 -369.5)"/>
</svg>
