<svg xmlns="http://www.w3.org/2000/svg" width="40.68" height="40" viewBox="0 0 40.68 40">
  <metadata><?xpacket begin="﻿" id="W5M0MpCehiHzreSzNTczkc9d"?>
<x:xmpmeta xmlns:x="adobe:ns:meta/" x:xmptk="Adobe XMP Core 5.6-c138 79.159824, 2016/09/14-01:09:01        ">
   <rdf:RDF xmlns:rdf="http://www.w3.org/1999/02/22-rdf-syntax-ns#">
      <rdf:Description rdf:about=""/>
   </rdf:RDF>
</x:xmpmeta>
                                                                                                    
                                                                                                    
                                                                                                    
                                                                                                    
                                                                                                    
                                                                                                    
                                                                                                    
                                                                                                    
                                                                                                    
                                                                                                    
                                                                                                    
                                                                                                    
                                                                                                    
                                                                                                    
                                                                                                    
                                                                                                    
                                                                                                    
                                                                                                    
                                                                                                    
                                                                                                    
                           
<?xpacket end="w"?></metadata>
<defs>
    <style>
      .cls-1 {
        fill-rule: evenodd;
      }
    </style>
  </defs>
  <path id="icon_the_day_of_order" class="cls-1" d="M1164.45,331.192l-3.86,5.546-2.72-2.236a0.691,0.691,0,0,0-.88,1.066l3.31,2.709a0.654,0.654,0,0,0,.43.158,0.673,0.673,0,0,0,.1-0.007,0.686,0.686,0,0,0,.47-0.289l4.28-6.158A0.689,0.689,0,1,0,1164.45,331.192Zm-3.57-5.123a8.966,8.966,0,1,0,8.97,8.966A8.982,8.982,0,0,0,1160.88,326.069Zm0,16.552a7.587,7.587,0,1,1,7.59-7.586A7.6,7.6,0,0,1,1160.88,342.621Zm4.14-35.174a0.691,0.691,0,0,0-.69-0.69h-3.45v-2.069a0.691,0.691,0,0,0-.69-0.69h-4.83a0.691,0.691,0,0,0-.69.69v2.069H1139.5v-2.069a0.691,0.691,0,0,0-.69-0.69h-4.83a0.691,0.691,0,0,0-.69.69v2.069h-3.45a0.691,0.691,0,0,0-.69.69v6.207h35.87v-6.207Zm-26.9,0v2.069h-3.45v-4.139h3.45v2.07Zm21.38,0v2.069h-3.45v-4.139h3.45v2.07Zm-9.66,27.588a11.043,11.043,0,0,1,7.24-10.346h-2.41v-5.518h5.52v4.864c0.23-.015.46-0.035,0.69-0.035a10.988,10.988,0,0,1,4.14.812v-9.089a0.691,0.691,0,0,0-.69-0.69h-34.49a0.691,0.691,0,0,0-.69.69v26.9a0.69,0.69,0,0,0,.69.69h23.77A11.008,11.008,0,0,1,1149.84,335.035Zm-10.34,3.448h-5.52v-5.517h5.52v5.517Zm0-6.9h-5.52v-5.517h5.52v5.517Zm0-6.9h-5.52v-5.518h5.52v5.518Zm6.9,13.794h-5.52v-5.517h5.52v5.517Zm0-6.9h-5.52v-5.517h5.52v5.517Zm0-6.9h-5.52v-5.518h5.52v5.518Zm1.38-5.518h5.51v5.518h-5.51v-5.518Z" transform="translate(-1129.16 -304)"/>
</svg>
