<svg xmlns="http://www.w3.org/2000/svg" width="21.75" height="24.031" viewBox="0 0 21.75 24.031">
  <metadata><?xpacket begin="﻿" id="W5M0MpCehiHzreSzNTczkc9d"?>
<x:xmpmeta xmlns:x="adobe:ns:meta/" x:xmptk="Adobe XMP Core 5.6-c138 79.159824, 2016/09/14-01:09:01        ">
   <rdf:RDF xmlns:rdf="http://www.w3.org/1999/02/22-rdf-syntax-ns#">
      <rdf:Description rdf:about=""/>
   </rdf:RDF>
</x:xmpmeta>
                                                                                                    
                                                                                                    
                                                                                                    
                                                                                                    
                                                                                                    
                                                                                                    
                                                                                                    
                                                                                                    
                                                                                                    
                                                                                                    
                                                                                                    
                                                                                                    
                                                                                                    
                                                                                                    
                                                                                                    
                                                                                                    
                                                                                                    
                                                                                                    
                                                                                                    
                                                                                                    
                           
<?xpacket end="w"?></metadata>
<defs>
    <style>
      .cls-1 {
        fill: #fff;
        fill-rule: evenodd;
      }
    </style>
  </defs>
  <path id="Forma_1" data-name="Forma 1" class="cls-1" d="M716.177,742.066l-12.6,4.127a0.622,0.622,0,0,0-.063,1.157l4.944,2.242L703,755.056a0.622,0.622,0,1,0,.879.879l5.447-5.449,2.49,5.176a0.622,0.622,0,0,0,.56.352l0.045,0a0.619,0.619,0,0,0,.548-0.434l4-12.734A0.623,0.623,0,0,0,716.177,742.066Zm-3.927,11.639-2.216-4.605a0.621,0.621,0,0,0-.3-0.3l-4.249-1.927,9.934-3.252Zm-4.164-10.866a0.622,0.622,0,0,0,.621-0.622V742.2a0.622,0.622,0,1,0-1.243,0v0.021A0.623,0.623,0,0,0,708.086,742.839Zm0-7.1a0.621,0.621,0,0,0,.621-0.622v-0.041a0.622,0.622,0,0,0-1.243,0v0.041A0.622,0.622,0,0,0,708.086,735.738Zm0,4.747a0.621,0.621,0,0,0,.621-0.622v-0.041a0.622,0.622,0,0,0-1.243,0v0.041A0.622,0.622,0,0,0,708.086,740.485Zm0-2.374a0.621,0.621,0,0,0,.621-0.621v-0.041a0.622,0.622,0,1,0-1.243,0v0.041A0.622,0.622,0,0,0,708.086,738.111Zm0-4.746a0.633,0.633,0,0,0,.021-1.265h-0.021a0.623,0.623,0,0,0-.622.622v0.021A0.623,0.623,0,0,0,708.086,733.365Zm10.93-1.265h-0.038a0.622,0.622,0,0,0,0,1.244h0.038A0.622,0.622,0,0,0,719.016,732.1Zm-8.22,1.244h0.038a0.622,0.622,0,0,0,0-1.244H710.8A0.622,0.622,0,0,0,710.8,733.344Zm10.948-1.244h-0.039a0.622,0.622,0,0,0,0,1.244h0.039A0.622,0.622,0,0,0,721.744,732.1Zm-5.494,1.244h0.039a0.622,0.622,0,0,0,0-1.244H716.25A0.622,0.622,0,0,0,716.25,733.344Zm-2.727,0h0.038a0.622,0.622,0,0,0,0-1.244h-0.038A0.622,0.622,0,0,0,713.523,733.344ZM723.94,732.1h-0.021a0.633,0.633,0,1,0,.643.643v-0.021A0.623,0.623,0,0,0,723.94,732.1Zm0,7.121a0.623,0.623,0,0,0-.622.622v0.04a0.622,0.622,0,1,0,1.244,0v-0.04A0.623,0.623,0,0,0,723.94,739.221Zm0,2.38a0.623,0.623,0,0,0-.622.622v0.041a0.622,0.622,0,0,0,1.244,0v-0.041A0.623,0.623,0,0,0,723.94,741.6Zm0-4.76a0.622,0.622,0,0,0-.622.622v0.04a0.622,0.622,0,0,0,1.244,0v-0.04A0.622,0.622,0,0,0,723.94,736.841Zm0-2.381a0.623,0.623,0,0,0-.622.622v0.041a0.622,0.622,0,0,0,1.244,0v-0.041A0.623,0.623,0,0,0,723.94,734.46Zm0,11.9a0.622,0.622,0,0,0-.622.622v0.04a0.622,0.622,0,0,0,1.244,0v-0.04A0.622,0.622,0,0,0,723.94,746.362Zm0-2.381a0.623,0.623,0,0,0-.622.622v0.041a0.622,0.622,0,0,0,1.244,0V744.6A0.623,0.623,0,0,0,723.94,743.981Zm0,4.761a0.632,0.632,0,0,0-.021,1.264h0.021a0.622,0.622,0,0,0,.622-0.621v-0.021A0.622,0.622,0,0,0,723.94,748.742Zm-2.882.021H721.01a0.622,0.622,0,1,0,0,1.243h0.048A0.622,0.622,0,1,0,721.058,748.763Zm-2.909,0h-0.021a0.622,0.622,0,1,0,0,1.243h0.021A0.622,0.622,0,0,0,718.149,748.763Z" transform="translate(-702.813 -732.094)"/>
</svg>
