<svg xmlns="http://www.w3.org/2000/svg" width="44.875" height="48" viewBox="0 0 44.875 48">
  <metadata><?xpacket begin="﻿" id="W5M0MpCehiHzreSzNTczkc9d"?>
<x:xmpmeta xmlns:x="adobe:ns:meta/" x:xmptk="Adobe XMP Core 5.6-c138 79.159824, 2016/09/14-01:09:01        ">
   <rdf:RDF xmlns:rdf="http://www.w3.org/1999/02/22-rdf-syntax-ns#">
      <rdf:Description rdf:about=""/>
   </rdf:RDF>
</x:xmpmeta>
                                                                                                    
                                                                                                    
                                                                                                    
                                                                                                    
                                                                                                    
                                                                                                    
                                                                                                    
                                                                                                    
                                                                                                    
                                                                                                    
                                                                                                    
                                                                                                    
                                                                                                    
                                                                                                    
                                                                                                    
                                                                                                    
                                                                                                    
                                                                                                    
                                                                                                    
                                                                                                    
                           
<?xpacket end="w"?></metadata>
<defs>
    <style>
      .cls-1 {
        fill-rule: evenodd;
      }
    </style>
  </defs>
  <path id="icon_direct_deliveries_brw_trust" class="cls-1" d="M981.644,3097l-4.6-3.99v-5.98a0.81,0.81,0,0,0-.813-0.81h-3.255a0.811,0.811,0,0,0-.814.81h0v1.75l-2.721-2.36a0.8,0.8,0,0,0-1.066,0L956.17,3097a0.809,0.809,0,0,0,.533,1.42h4.068v9.77a0.81,0.81,0,0,0,.813.81H976.23a0.81,0.81,0,0,0,.813-0.81h0v-9.77h4.068a0.809,0.809,0,0,0,.813-0.81A0.791,0.791,0,0,0,981.644,3097Zm-11.11,10.37H967.28v-4.06a1.627,1.627,0,1,1,3.254,0v4.06Zm5.7-10.57a0.81,0.81,0,0,0-.813.81h0v9.76h-3.255v-4.06a3.254,3.254,0,1,0-6.508,0v4.06H962.4v-9.76a0.81,0.81,0,0,0-.813-0.81h-2.7l10.023-8.69,3.535,3.06a0.808,0.808,0,0,0,1.148-.08,0.823,0.823,0,0,0,.2-0.53v-2.71h1.627v5.53a0.791,0.791,0,0,0,.28.61l3.234,2.81h-2.7Zm-39.154-30.82h4.068v1.63h-4.068v-1.63Zm0,3.26h4.068v1.62h-4.068v-1.62Zm0,3.25h4.068v1.63h-4.068v-1.63Zm38.341-3.36H964.839v1.63h10.577a4.88,4.88,0,1,1,0,9.76H949.279a12.205,12.205,0,0,0,0,24.41h9.865v-1.62h-9.865a10.58,10.58,0,0,1,0-21.16h26.137A6.51,6.51,0,0,0,975.416,3069.13Zm-26.317,5.44v-1.39h10.534l2.054-8.05h-3.408v-3.75h-4.151v1h-4.752v2.75h-2.241l-1.094-4.13h-3.474v1.12h2.612l2.8,10.58v2.99h1.036a1.8,1.8,0,0,0-.153.74,1.859,1.859,0,1,0,3.718,0,1.812,1.812,0,0,0-.153-0.74h3.091a1.8,1.8,0,0,0-.154.74,1.86,1.86,0,1,0,3.719,0,1.812,1.812,0,0,0-.153-0.74h0.844v-1.12H949.1Zm8.124,1.12a0.74,0.74,0,1,1-.739.74A0.739,0.739,0,0,1,957.223,3075.69Zm-6.5,0a0.74,0.74,0,1,1-.739.74A0.739,0.739,0,0,1,950.72,3075.69Zm4.528-13.19h1.91v2.63h-1.91v-2.63Zm-4.751,1h3.631v1.63H950.5v-1.63Zm-1.527,8.56-1.538-5.81h12.812l-1.482,5.81H948.97Zm0.843-4.59h1.121v3.56h-1.121v-3.56Zm2.319,0h1.121v3.56h-1.121v-3.56Zm2.32,0h1.12v3.56h-1.12v-3.56Zm2.319,0h1.121v3.56h-1.121v-3.56Z" transform="translate(-937.063 -3061)"/>
</svg>
