<svg xmlns="http://www.w3.org/2000/svg" width="48" height="48" viewBox="0 0 48 48">
  <metadata><?xpacket begin="﻿" id="W5M0MpCehiHzreSzNTczkc9d"?>
<x:xmpmeta xmlns:x="adobe:ns:meta/" x:xmptk="Adobe XMP Core 5.6-c138 79.159824, 2016/09/14-01:09:01        ">
   <rdf:RDF xmlns:rdf="http://www.w3.org/1999/02/22-rdf-syntax-ns#">
      <rdf:Description rdf:about=""/>
   </rdf:RDF>
</x:xmpmeta>
                                                                                                    
                                                                                                    
                                                                                                    
                                                                                                    
                                                                                                    
                                                                                                    
                                                                                                    
                                                                                                    
                                                                                                    
                                                                                                    
                                                                                                    
                                                                                                    
                                                                                                    
                                                                                                    
                                                                                                    
                                                                                                    
                                                                                                    
                                                                                                    
                                                                                                    
                                                                                                    
                           
<?xpacket end="w"?></metadata>
<defs>
    <style>
      .cls-1 {
        fill-rule: evenodd;
      }
    </style>
  </defs>
  <path id="icon_low_price_brw_trust" class="cls-1" d="M1425.41,2813.59c-0.95-.95-2.78-0.74-5.3.6a30.34,30.34,0,0,0-6.84,5.23,33.073,33.073,0,0,0-2.34,2.6l-9.86-1.19c-0.13-.01-0.27-0.02-0.41-0.02a5.248,5.248,0,0,0-1.81.36,4.37,4.37,0,0,0-1.54.97l-8.8,8.8a0.7,0.7,0,1,0,.99.99l8.8-8.8a3.253,3.253,0,0,1,1.06-.65,3.729,3.729,0,0,1,1.29-.27h0.01a1.659,1.659,0,0,1,.24.02l12.84,1.54a1.786,1.786,0,0,1,.97.5,1.662,1.662,0,0,1,.5.97l0.27,2.2a20.323,20.323,0,0,1-3.12,1.99c-0.19.1-.38,0.18-0.57,0.27a3.607,3.607,0,0,0-.92-1.62,3.5,3.5,0,1,0,.96,3.12,10.788,10.788,0,0,0,1.15-.51,20.154,20.154,0,0,0,2.69-1.65l1.08,9.05a1.659,1.659,0,0,1,.02.24,3.781,3.781,0,0,1-.27,1.3,3.253,3.253,0,0,1-.65,1.06l-18.54,18.56a1.173,1.173,0,0,1-.83.34,1.156,1.156,0,0,1-.83-0.34l-15.9-15.91a1.2,1.2,0,0,1-.34-0.83,1.217,1.217,0,0,1,.34-0.83l7.77-7.76a0.707,0.707,0,0,0-1-1l-7.76,7.77a2.674,2.674,0,0,0-.56.85,2.5,2.5,0,0,0-.19.97,2.467,2.467,0,0,0,.19.97,2.567,2.567,0,0,0,.56.85l15.9,15.91a2.422,2.422,0,0,0,.85.56,2.467,2.467,0,0,0,.97.19h0a2.5,2.5,0,0,0,.97-0.19,2.422,2.422,0,0,0,.85-0.56l18.55-18.56a4.5,4.5,0,0,0,.96-1.54,5.248,5.248,0,0,0,.36-1.81c0-.14-0.01-0.28-0.02-0.41l-1.18-9.86a34.821,34.821,0,0,0,2.59-2.35,30.475,30.475,0,0,0,5.24-6.82C1426.15,2816.37,1426.36,2814.54,1425.41,2813.59Zm-17.44,17.42a2.34,2.34,0,0,0,1.74.65,3.829,3.829,0,0,0,.47-0.03,1.9,1.9,0,0,1-.31.39,2.076,2.076,0,0,1-2.94,0,2.082,2.082,0,0,1,0-2.94,2.076,2.076,0,0,1,2.94,0,2.055,2.055,0,0,1,.58,1.07,1.665,1.665,0,0,1-1.49-.13A0.7,0.7,0,0,0,1407.97,2831.01Zm15.59-12.79a29.231,29.231,0,0,1-4.99,6.5c-0.59.59-1.2,1.15-1.8,1.67l-0.16-1.32a3.061,3.061,0,0,0-.91-1.79,3.12,3.12,0,0,0-1.79-.91l-1.32-.15c0.52-.61,1.08-1.22,1.67-1.81,4.96-4.96,9.39-6.59,10.16-5.82C1424.77,2814.94,1424.64,2816.2,1423.56,2818.22Zm-18.6,21.42a0.649,0.649,0,0,0-.53-0.45l-5.1-.71-2.27-4.43a0.684,0.684,0,0,0-1.17,0l-2.27,4.43-5.1.71a0.677,0.677,0,0,0-.54.45,0.667,0.667,0,0,0,.18.67l3.67,3.45-0.86,4.85a0.662,0.662,0,0,0,.25.64,0.727,0.727,0,0,0,.39.13,0.735,0.735,0,0,0,.3-0.07l4.57-2.31,4.56,2.31a0.662,0.662,0,0,0,.69-0.06,0.642,0.642,0,0,0,.25-0.64l-0.86-4.85,3.67-3.45A0.642,0.642,0,0,0,1404.96,2839.64Zm-5,3.41a0.65,0.65,0,0,0-.2.59l0.7,3.91-3.69-1.87a0.775,0.775,0,0,0-.3-0.07,0.727,0.727,0,0,0-.29.07l-3.69,1.87,0.7-3.91a0.677,0.677,0,0,0-.2-0.59l-2.94-2.75,4.08-.57a0.676,0.676,0,0,0,.5-0.35l1.84-3.6,1.85,3.6a0.659,0.659,0,0,0,.49.35l4.08,0.57Z" transform="translate(-1378 -2813)"/>
</svg>
