<svg xmlns="http://www.w3.org/2000/svg" viewBox="0 0 31 31"><defs><style>.cls-1{fill:#040707;fill-opacity:0;stroke:#ea3c27;stroke-linejoin:round;}.cls-2{fill:#ea3c27;}</style></defs><title>icon_name_reg</title><g id="Layer_2" data-name="Layer 2"><g id="Layer_1-2" data-name="Layer 1"><circle id="Ellipse" class="cls-1" cx="15.5" cy="15.5" r="15"/><path id="icon_name_reg" data-name="icon name reg" class="cls-2" d="M22.2,20.14l-.05.07a8.35,8.35,0,0,1-13.3,0l-.05-.07v-.08A6.88,6.88,0,0,1,12.1,15l.12-.07.1.11a4.37,4.37,0,0,0,6.18.17l.17-.17.11-.11.12.07a6.88,6.88,0,0,1,3.29,5.06Zm-6.7-4.64a4,4,0,1,0-4-4h0A4,4,0,0,0,15.5,15.49Z"/></g></g></svg>