<svg xmlns="http://www.w3.org/2000/svg" width="14" height="9.03" viewBox="0 0 14 9.03">
  <metadata><?xpacket begin="﻿" id="W5M0MpCehiHzreSzNTczkc9d"?>
<x:xmpmeta xmlns:x="adobe:ns:meta/" x:xmptk="Adobe XMP Core 5.6-c138 79.159824, 2016/09/14-01:09:01        ">
   <rdf:RDF xmlns:rdf="http://www.w3.org/1999/02/22-rdf-syntax-ns#">
      <rdf:Description rdf:about=""/>
   </rdf:RDF>
</x:xmpmeta>
                                                                                                    
                                                                                                    
                                                                                                    
                                                                                                    
                                                                                                    
                                                                                                    
                                                                                                    
                                                                                                    
                                                                                                    
                                                                                                    
                                                                                                    
                                                                                                    
                                                                                                    
                                                                                                    
                                                                                                    
                                                                                                    
                                                                                                    
                                                                                                    
                                                                                                    
                                                                                                    
                           
<?xpacket end="w"?></metadata>
<defs>
    <style>
      .cls-1 {
        fill: #040707;
        fill-rule: evenodd;
      }
    </style>
  </defs>
  <path id="icon_prev" class="cls-1" d="M312.038,1222.02h12.924a0.506,0.506,0,1,0,0-1.01H312.038A0.506,0.506,0,1,0,312.038,1222.02Zm4.308,4.01a0.551,0.551,0,0,0,.381-0.15,0.479,0.479,0,0,0,0-.71l-4.308-4.01a0.558,0.558,0,0,0-.761,0,0.477,0.477,0,0,0,0,.71l4.307,4.01A0.553,0.553,0,0,0,316.346,1226.03Zm-4.308-4.01a0.551,0.551,0,0,0,.381-0.15l4.308-4.02a0.479,0.479,0,0,0,0-.71,0.581,0.581,0,0,0-.762,0l-4.307,4.02a0.477,0.477,0,0,0,0,.71A0.551,0.551,0,0,0,312.038,1222.02Z" transform="translate(-311.5 -1217)"/>
</svg>
