<svg xmlns="http://www.w3.org/2000/svg" width="29.32" height="23.97" viewBox="0 0 29.32 23.97">
  <metadata><?xpacket begin="﻿" id="W5M0MpCehiHzreSzNTczkc9d"?>
<x:xmpmeta xmlns:x="adobe:ns:meta/" x:xmptk="Adobe XMP Core 5.6-c138 79.159824, 2016/09/14-01:09:01        ">
   <rdf:RDF xmlns:rdf="http://www.w3.org/1999/02/22-rdf-syntax-ns#">
      <rdf:Description rdf:about=""/>
   </rdf:RDF>
</x:xmpmeta>
                                                                                                    
                                                                                                    
                                                                                                    
                                                                                                    
                                                                                                    
                                                                                                    
                                                                                                    
                                                                                                    
                                                                                                    
                                                                                                    
                                                                                                    
                                                                                                    
                                                                                                    
                                                                                                    
                                                                                                    
                                                                                                    
                                                                                                    
                                                                                                    
                                                                                                    
                                                                                                    
                           
<?xpacket end="w"?></metadata>
<defs>
    <style>
      .cls-1 {
        fill-rule: evenodd;
      }
    </style>
  </defs>
  <path id="icon_reload" class="cls-1" d="M1098.97,1008.45l-1.66,1.66a10.135,10.135,0,0,1,17.78-3.16l1.47-1.12a11.982,11.982,0,0,0-21.18,4.35l-1.73-1.73-1.31,1.31,3.97,3.96,3.97-3.96Zm18.72,3.96-3.97,3.97,1.31,1.31,1.68-1.68a10.144,10.144,0,0,1-17.95,2.99l-1.49,1.08a11.914,11.914,0,0,0,7.79,4.84,14.243,14.243,0,0,0,1.95.16,11.968,11.968,0,0,0,11.61-9.12l1.73,1.73,1.31-1.31Zm-0.05,2.66,0.05-.05,0.07,0.07Z" transform="translate(-1092.34 -1001.09)"/>
</svg>
