<svg xmlns="http://www.w3.org/2000/svg" viewBox="0 0 79.75 58.29"><defs><style>.cls-1{fill:#ea3c27;}.cls-2{fill:#040707;stroke:#fff;stroke-linejoin:round;stroke-width:4px;}</style></defs><title>icon_basket</title><g id="Layer_2" data-name="Layer 2"><g id="Layer_1-2" data-name="Layer 1"><path id="icon_basket" data-name="icon basket" class="cls-1" d="M49.84,39.87H22.9C18.41,30.15,14.37,20,10.11,10.24H0v3.69H7.64c4.05,10,8.3,19.69,12.58,29.4H49.84a17.52,17.52,0,0,0,0-3.47h0ZM43.33,47a5.41,5.41,0,0,0-4,4.41,5.46,5.46,0,1,0,10.55,0c-.45-3-3.36-4.86-6.51-4.41ZM25.6,47a6,6,0,0,0-4.27,4.41c-.45,3.47,1.8,6.26,4.27,6.7,4.26.7,7-3,6.51-6.7-.44-3-3.36-4.86-6.51-4.41Zm-.68-11.1H50.07l7-18.28H18l1.13,3.71h6.73l1.36,3.69H20.66L22,28.53h6.74l1.34,3.93H23.58Z"/></g></g></svg>