<svg xmlns="http://www.w3.org/2000/svg" width="14.03" height="9.03" viewBox="0 0 14.03 9.03">
  <metadata><?xpacket begin="﻿" id="W5M0MpCehiHzreSzNTczkc9d"?>
<x:xmpmeta xmlns:x="adobe:ns:meta/" x:xmptk="Adobe XMP Core 5.6-c138 79.159824, 2016/09/14-01:09:01        ">
   <rdf:RDF xmlns:rdf="http://www.w3.org/1999/02/22-rdf-syntax-ns#">
      <rdf:Description rdf:about=""/>
   </rdf:RDF>
</x:xmpmeta>
                                                                                                    
                                                                                                    
                                                                                                    
                                                                                                    
                                                                                                    
                                                                                                    
                                                                                                    
                                                                                                    
                                                                                                    
                                                                                                    
                                                                                                    
                                                                                                    
                                                                                                    
                                                                                                    
                                                                                                    
                                                                                                    
                                                                                                    
                                                                                                    
                                                                                                    
                                                                                                    
                           
<?xpacket end="w"?></metadata>
<defs>
    <style>
      .cls-1 {
        fill: #fff;
        fill-rule: evenodd;
      }
    </style>
  </defs>
  <path id="icon_next" class="cls-1" d="M1041.96,1979.02h-12.92a0.506,0.506,0,1,1,0-1.01h12.92A0.506,0.506,0,1,1,1041.96,1979.02Zm-4.31,4.01a0.573,0.573,0,0,1-.38-0.15,0.479,0.479,0,0,1,0-.71l4.31-4.01a0.556,0.556,0,0,1,.76,0,0.479,0.479,0,0,1,0,.71l-4.31,4.01A0.537,0.537,0,0,1,1037.65,1983.03Zm4.31-4.01a0.554,0.554,0,0,1-.38-0.15l-4.31-4.02a0.479,0.479,0,0,1,0-.71,0.578,0.578,0,0,1,.76,0l4.31,4.02a0.479,0.479,0,0,1,0,.71A0.537,0.537,0,0,1,1041.96,1979.02Z" transform="translate(-1028.5 -1974)"/>
</svg>
