<svg xmlns="http://www.w3.org/2000/svg" width="70" height="48" viewBox="0 0 70 48">
  <metadata><?xpacket begin="﻿" id="W5M0MpCehiHzreSzNTczkc9d"?>
<x:xmpmeta xmlns:x="adobe:ns:meta/" x:xmptk="Adobe XMP Core 5.6-c138 79.159824, 2016/09/14-01:09:01        ">
   <rdf:RDF xmlns:rdf="http://www.w3.org/1999/02/22-rdf-syntax-ns#">
      <rdf:Description rdf:about=""/>
   </rdf:RDF>
</x:xmpmeta>
                                                                                                    
                                                                                                    
                                                                                                    
                                                                                                    
                                                                                                    
                                                                                                    
                                                                                                    
                                                                                                    
                                                                                                    
                                                                                                    
                                                                                                    
                                                                                                    
                                                                                                    
                                                                                                    
                                                                                                    
                                                                                                    
                                                                                                    
                                                                                                    
                                                                                                    
                                                                                                    
                           
<?xpacket end="w"?></metadata>
<defs>
    <style>
      .cls-1 {
        fill: #040707;
        fill-rule: evenodd;
      }
    </style>
  </defs>
  <path id="icon_guarantee_product" class="cls-1" d="M1428.11,2854.01h-60.22v40.64h40.71v7.34l4.26-2.34,4.25,2.34v-7.34h11v-40.64h0Zm-16.15,44.1-1.57.86v-8.13a1.616,1.616,0,0,0,.54.1,1.456,1.456,0,0,0,.61-0.13l0.42-.18v7.48h0Zm3.36,0.86-1.57-.86v-7.48l0.42,0.18a1.456,1.456,0,0,0,.61.13,1.616,1.616,0,0,0,.54-0.1v8.13h0Zm-0.65-9.89-1.21-.53a1.473,1.473,0,0,0-1.21,0l-1.21.53-1-1.71-1.93-.42,0.13-1.31a1.509,1.509,0,0,0-.38-1.15l-0.87-.99,0.87-.98a1.509,1.509,0,0,0,.38-1.15l-0.13-1.31,1.28-.28a1.493,1.493,0,0,0,.99-0.72l0.66-1.13,1.21,0.53a1.523,1.523,0,0,0,1.22,0l1.2-.53,0.66,1.13a1.516,1.516,0,0,0,.99.72l1.28,0.28-0.13,1.31a1.509,1.509,0,0,0,.38,1.15l0.87,0.98-0.87.99a1.509,1.509,0,0,0-.38,1.15l0.13,1.31-1.93.42Zm4.74-2.06-0.15-1.44,0.96-1.07a1.512,1.512,0,0,0,0-2.01l-0.96-1.08,0.15-1.43a1.516,1.516,0,0,0-1.19-1.62l-1.41-.31-0.72-1.24a1.5,1.5,0,0,0-1.31-.75,1.456,1.456,0,0,0-.61.13l-1.31.58-1.32-.58a1.456,1.456,0,0,0-.61-0.13,1.5,1.5,0,0,0-1.31.75l-0.72,1.24-1.41.31a1.516,1.516,0,0,0-1.19,1.62l0.15,1.43-0.96,1.08a1.512,1.512,0,0,0,0,2.01l0.96,1.07-0.15,1.44a1.516,1.516,0,0,0,1.19,1.62l1.11,0.24v1.11h-33.29a3.753,3.753,0,0,0-2.75-2.74v-25.84a3.753,3.753,0,0,0,2.75-2.74h45.38a3.753,3.753,0,0,0,2.75,2.74v25.84a3.753,3.753,0,0,0-2.75,2.74h-3.58v-1.11l1.11-.24A1.516,1.516,0,0,0,1419.41,2887.02Zm6.91,5.84h-9.21v-1.08h5.26v-0.9a1.963,1.963,0,0,1,1.96-1.96h0.89v-29.19h-0.89a1.963,1.963,0,0,1-1.96-1.96v-0.89h-48.74v0.89a1.963,1.963,0,0,1-1.96,1.96h-0.89v29.19h0.89a1.963,1.963,0,0,1,1.96,1.96v0.9h34.97v1.08h-38.92v-37.07h56.64v37.07h0Zm-13.46-13.23a3.875,3.875,0,1,0,3.87,3.87A3.882,3.882,0,0,0,1412.86,2879.63Zm0,5.96a2.085,2.085,0,1,1,2.09-2.09A2.091,2.091,0,0,1,1412.86,2885.59ZM1398,2863.07h-9.65v1.78h19.3v-1.78H1398Zm0,5.89h-19.79v1.79h39.58v-1.79H1398Zm0,4.48h-19.79v1.78h39.58v-1.78H1398Zm-19.79,4.47H1398v1.78h-19.79v-1.78Zm0,6.08h11.37v1.79h-11.37v-1.79Zm19.79,0h-5.69v1.79h11.38v-1.79H1398Z" transform="translate(-1363 -2854)"/>
</svg>
