<svg xmlns="http://www.w3.org/2000/svg" viewBox="0 0 31 31"><defs><style>.cls-1{fill:#040707;fill-opacity:0;stroke:#ea3c27;stroke-linejoin:round;}.cls-2{fill:#ea3c27;}</style></defs><title>icon_address_reg</title><g id="Layer_2" data-name="Layer 2"><g id="Layer_1-2" data-name="Layer 1"><circle id="Ellipse" class="cls-1" cx="15.5" cy="15.5" r="15"/><path id="icon_address_reg" data-name="icon address reg" class="cls-2" d="M15.5,7.5a5.89,5.89,0,0,0-5.88,5.89,5.76,5.76,0,0,0,.51,2.4,37.15,37.15,0,0,0,5.12,7.59.33.33,0,0,0,.46,0l0,0a37.23,37.23,0,0,0,5.12-7.59,5.76,5.76,0,0,0,.51-2.4A5.89,5.89,0,0,0,15.5,7.5Zm0,9a3.06,3.06,0,1,1,3.05-3.07h0a3.06,3.06,0,0,1-3.05,3.06Z"/></g></g></svg>