<svg xmlns="http://www.w3.org/2000/svg" viewBox="0 0 47.08 40"><defs><style>.cls-1{fill:#040707;}.cls-2{fill:#f1f4fb;}.cls-3{fill:#fff;}</style></defs><title>icon_free_delivery</title><g id="Layer_2" data-name="Layer 2"><g id="Layer_1-2" data-name="Layer 1"><path class="cls-1" d="M33,11H4.67a.79.79,0,0,0-.79.79V28.26H6.24a1.57,1.57,0,1,1,0,3.15H3.88v2.36a.79.79,0,0,0,.79.79H33.76V11.74A.79.79,0,0,0,33,11Z"/><path d="M43.2,23.54H33.76v11H46.34V26.68A3.15,3.15,0,0,0,43.2,23.54Z"/><path class="cls-2" d="M43.2,26.68h3.15v3.15H44.77a1.57,1.57,0,0,1-1.57-1.57V26.68Z"/><path class="cls-3" d="M39.26,29a6.29,6.29,0,0,0-5.5,3.25v2.26H45.5A6.29,6.29,0,0,0,39.26,29Z"/><path class="cls-3" d="M13.32,29A6.27,6.27,0,0,0,8.41,31.4H3.88v2.36a.79.79,0,0,0,.79.79H33.76V31.4H18.22A6.27,6.27,0,0,0,13.32,29Z"/><path class="cls-1" d="M43.78,22.84,42.56,18a.74.74,0,0,0,.58-.72v-.79a3.1,3.1,0,0,0-3.1-3.1H34.5V11.74A1.53,1.53,0,0,0,33,10.22H22.65l6.27-2.51a.74.74,0,0,0-.55-1.37L23.24,8.4a17.33,17.33,0,0,0,3.7-2.88,3.43,3.43,0,1,0-5.46-4.16h0c-.84,1.1-1.95,4.19-2.66,6.37C18.1,5.54,17,2.45,16.16,1.35h0A3.43,3.43,0,1,0,10.7,5.51,17.32,17.32,0,0,0,14.4,8.4L9.27,6.34a.74.74,0,1,0-.55,1.37L15,10.22H4.67a1.53,1.53,0,0,0-1.52,1.52V25.11a.74.74,0,0,0,1.47,0V11.74a0,0,0,0,1,0,0H33a0,0,0,0,1,0,0V25.11a.74.74,0,1,0,1.47,0v-.84h8.7a2.41,2.41,0,0,1,2.29,1.67H43.2a.74.74,0,0,0-.74.74v1.57a2.31,2.31,0,0,0,2.31,2.31h.84v3.24H43.68a4.67,4.67,0,0,0-8.82,0H34.5V28.26a.74.74,0,1,0-1.47,0v5.55H17.73a4.67,4.67,0,0,0-8.82,0H4.67a0,0,0,0,1,0,0V32.14H7.81a.74.74,0,0,0,0-1.47H.74a.74.74,0,1,0,0,1.47H3.15v1.62a1.53,1.53,0,0,0,1.52,1.52h4s0,0,0,0a4.67,4.67,0,0,0,9.34,0s0,0,0,0H34.6s0,0,0,0a4.67,4.67,0,0,0,9.34,0s0,0,0,0h2.41a.74.74,0,0,0,.74-.74V26.68A3.89,3.89,0,0,0,43.78,22.84ZM22.66,2.24h0a2,2,0,0,1,3.11,2.38c-.26.33-1.12,1.17-4,3-.59.36-1.16.71-1.66,1C20.83,6.33,21.94,3.18,22.66,2.24ZM11.87,4.62A2,2,0,0,1,15,2.24h0c.71.93,1.83,4.08,2.57,6.35-.5-.29-1.07-.64-1.66-1C13,5.79,12.13,5,11.87,4.62ZM34.5,18H41l1.2,4.82H34.5V18Zm5.55-3.15a1.62,1.62,0,0,1,1.62,1.62v0H34.5V14.84h5.55ZM13.32,38.53a3.19,3.19,0,1,1,3.19-3.19A3.2,3.2,0,0,1,13.32,38.53Zm25.95,0a3.19,3.19,0,1,1,3.19-3.19A3.2,3.2,0,0,1,39.26,38.53Zm5.5-9.44a.84.84,0,0,1-.84-.84v-.84H45.6v1.67h-.84Z"/><path d="M13.32,33.81a1.52,1.52,0,1,0,1.52,1.52A1.53,1.53,0,0,0,13.32,33.81Z"/><path d="M39.26,33.81a1.52,1.52,0,1,0,1.52,1.52A1.53,1.53,0,0,0,39.26,33.81Z"/><path class="cls-1" d="M2.31,29h9.44a.74.74,0,1,0,0-1.47H2.31a.74.74,0,1,0,0,1.47Z"/></g></g></svg>