<svg xmlns="http://www.w3.org/2000/svg" width="18.62" height="16" viewBox="0 0 18.62 16">
  <metadata><?xpacket begin="﻿" id="W5M0MpCehiHzreSzNTczkc9d"?>
<x:xmpmeta xmlns:x="adobe:ns:meta/" x:xmptk="Adobe XMP Core 5.6-c138 79.159824, 2016/09/14-01:09:01        ">
   <rdf:RDF xmlns:rdf="http://www.w3.org/1999/02/22-rdf-syntax-ns#">
      <rdf:Description rdf:about=""/>
   </rdf:RDF>
</x:xmpmeta>
                                                                                                    
                                                                                                    
                                                                                                    
                                                                                                    
                                                                                                    
                                                                                                    
                                                                                                    
                                                                                                    
                                                                                                    
                                                                                                    
                                                                                                    
                                                                                                    
                                                                                                    
                                                                                                    
                                                                                                    
                                                                                                    
                                                                                                    
                                                                                                    
                                                                                                    
                                                                                                    
                           
<?xpacket end="w"?></metadata>
<defs>
    <style>
      .cls-1 {
        fill-rule: evenodd;
      }
    </style>
  </defs>
  <path id="icon_working_hours" class="cls-1" d="M1063.04,34.084v2.184h-1.09V34.084h-9.9v2.184h-1.09V34.084h-3.28V49.008h16.13l2.51-2.5V34.084h-3.28Zm2.19,11.648h-2.19v2.184h-14.27V38.452h16.46v7.28Zm-7.68-5.824h2.18v1.456h-2.18V39.907Zm-3.28,0h2.18v1.456h-2.18V39.907Zm6.55,0h2.19v1.456h-2.19V39.907Zm-3.27,2.548h2.18v1.456h-2.18V42.456Zm-3.28,0h2.18v1.456h-2.18V42.456Zm-3.28,0h2.19v1.456h-2.19V42.456Zm9.83,0h2.19v1.456h-2.19V42.456ZM1057.55,45h2.18V46.46h-2.18V45Zm-3.28,0h2.18V46.46h-2.18V45Zm-3.28,0h2.19V46.46h-2.19V45Zm10.96-12.012h1.09v1.092h-1.09V32.992Zm-10.99,0h1.09v1.092h-1.09V32.992Z" transform="translate(-1047.69 -33)"/>
</svg>
