<svg xmlns="http://www.w3.org/2000/svg" width="71.188" height="48" viewBox="0 0 71.188 48">
  <metadata><?xpacket begin="﻿" id="W5M0MpCehiHzreSzNTczkc9d"?>
<x:xmpmeta xmlns:x="adobe:ns:meta/" x:xmptk="Adobe XMP Core 5.6-c138 79.159824, 2016/09/14-01:09:01        ">
   <rdf:RDF xmlns:rdf="http://www.w3.org/1999/02/22-rdf-syntax-ns#">
      <rdf:Description rdf:about=""/>
   </rdf:RDF>
</x:xmpmeta>
                                                                                                    
                                                                                                    
                                                                                                    
                                                                                                    
                                                                                                    
                                                                                                    
                                                                                                    
                                                                                                    
                                                                                                    
                                                                                                    
                                                                                                    
                                                                                                    
                                                                                                    
                                                                                                    
                                                                                                    
                                                                                                    
                                                                                                    
                                                                                                    
                                                                                                    
                                                                                                    
                           
<?xpacket end="w"?></metadata>
<defs>
    <style>
      .cls-1 {
        fill: #333;
        fill-rule: evenodd;
      }
    </style>
  </defs>
  <path id="icon_no_intermediaries_brw_trust" class="cls-1" d="M553.881,3085.24L541.037,3063a1.388,1.388,0,0,0-1.9-.5l-9.332,5.38a1.4,1.4,0,0,0-.648.85,1.377,1.377,0,0,0-.025.6h-1.857a6.12,6.12,0,0,0-4.3,1.78l-2.429,2.44-1.7-2.04a6.036,6.036,0,0,0-4.661-2.18H507.8a1.362,1.362,0,0,0-.024-0.6,1.411,1.411,0,0,0-.648-0.85l-9.332-5.38a1.387,1.387,0,0,0-1.9.5l-3.1,5.37a1.391,1.391,0,1,0,2.409,1.39l2.4-4.16,6.924,3.99-11.454,19.83-6.924-3.99,2.58-4.47a1.39,1.39,0,1,0-2.408-1.39l-3.276,5.67a1.4,1.4,0,0,0-.139,1.06,1.391,1.391,0,0,0,.648.84l9.333,5.39a1.415,1.415,0,0,0,.695.18,1.467,1.467,0,0,0,.36-0.04,1.407,1.407,0,0,0,.844-0.65l0.126-.22,3.745,2.21a11.593,11.593,0,0,1,4.406,6.53,3.969,3.969,0,0,1,3.417,3.89,3.969,3.969,0,0,1,3.417,3.89,3.979,3.979,0,0,0,5.555.41,0.242,0.242,0,0,0,.059-0.05l2.214-1.96a3.98,3.98,0,0,0,.524.65l1.77,1.77a72.972,72.972,0,0,0,9.44-3.74,4,4,0,0,0,1.168-2.56,4.023,4.023,0,0,0,3.737-3.74,4.027,4.027,0,0,0,3.472-5.48l3.751-2.54,0.544,0.94a1.409,1.409,0,0,0,.845.65,1.456,1.456,0,0,0,.36.04,1.415,1.415,0,0,0,.695-0.18l9.332-5.39A1.387,1.387,0,0,0,553.881,3085.24Zm-30.116,21.93a1.249,1.249,0,0,1-1.77,0l-1.77-1.77a1.23,1.23,0,0,1-.367-0.88,1.257,1.257,0,0,1,2.137-.89l1.77,1.77A1.253,1.253,0,0,1,523.765,3107.17Zm3.737-3.73a1.268,1.268,0,0,1-1.77,0l-1.77-1.77a1.249,1.249,0,0,1-.367-0.89,1.249,1.249,0,0,1,2.137-.88l1.77,1.77A1.253,1.253,0,0,1,527.5,3103.44Zm3.736-3.74a1.249,1.249,0,0,1-1.77,0l-1.77-1.77a1.229,1.229,0,0,1-.366-0.88,1.252,1.252,0,0,1,.366-0.89,1.268,1.268,0,0,1,1.77,0l1.77,1.77A1.253,1.253,0,0,1,531.238,3099.7Zm3.737-3.73a1.268,1.268,0,0,1-1.77,0l-1.77-1.77a1.253,1.253,0,0,1,0-1.77,1.243,1.243,0,0,1,1.77,0l1.77,1.77A1.253,1.253,0,0,1,534.975,3095.97Zm1.154-4.55-0.958-.96a4.029,4.029,0,0,0-6.871,2.57,4.027,4.027,0,0,0-3.737,3.73,4.024,4.024,0,0,0-3.736,3.74,4.03,4.03,0,0,0-3.608,2.96l-3.5,3.1-0.036.03a1.2,1.2,0,0,1-1.581-1.8c0.047-.04,4.028-3.9,4.028-3.9a1.388,1.388,0,1,0-1.957-1.97s-3.6,3.57-3.624,3.59a1.667,1.667,0,0,0-.283.19,1.2,1.2,0,0,1-1.582-1.8,1.3,1.3,0,0,0,.323-0.42l3.806-3.81a1.389,1.389,0,0,0-1.969-1.96l-4.041,4.05a1.016,1.016,0,0,0-.172.21,1.211,1.211,0,0,1-.65.14,1.185,1.185,0,0,1-.823-0.4,1.2,1.2,0,0,1-.3-0.87,1.184,1.184,0,0,1,.4-0.82c0.011-.01.019-0.02,0.029-0.03a0.134,0.134,0,0,0,.038-0.04l4.413-4.42a1.383,1.383,0,0,0,0-1.96,1.4,1.4,0,0,0-1.967,0l-4.367,4.37a1.2,1.2,0,0,1-1.561-1.81c0.04-.04,3.882-3.74,3.882-3.74a1.389,1.389,0,0,0-1.918-2.01s-4.054,3.9-4.14,4l-3.365-1.99,9.984-17.28h7.9a3.273,3.273,0,0,1,2.522,1.18l5.629,6.77a1.569,1.569,0,0,1,.326,1.36,1.581,1.581,0,0,1-2.632.8L514,3076.5a1.391,1.391,0,1,0-1.913,2.02l0.39,0.37a6.128,6.128,0,0,1-5.907,3.35h-0.03a1.389,1.389,0,1,0-.21,2.77h0.03c0.22,0.02.44,0.03,0.658,0.03a8.961,8.961,0,0,0,7.538-4.18l3.566,3.38a4.323,4.323,0,0,0,4.827.79,4.361,4.361,0,0,0,1.531-6.75l-2.146-2.58,2.615-2.63a3.314,3.314,0,0,1,2.325-.96h3.365l9.563,16.55Zm7.725-2L532.4,3069.59l6.924-3.99,11.454,19.83Zm-52.438-15.87a1.388,1.388,0,0,0-1.9.5l-0.09.16a1.389,1.389,0,0,0,.508,1.9,1.354,1.354,0,0,0,.695.19,1.387,1.387,0,0,0,1.2-.7l0.09-.15A1.389,1.389,0,0,0,491.416,3073.55Zm54.735,9.1a1.383,1.383,0,0,0-1.966,0,1.37,1.37,0,0,0-.408.98,1.391,1.391,0,0,0,2.781,0A1.369,1.369,0,0,0,546.151,3082.65Zm-53.4,0a1.383,1.383,0,0,0-1.966,0,1.37,1.37,0,0,0-.408.98,1.391,1.391,0,0,0,2.781,0A1.369,1.369,0,0,0,492.751,3082.65Z" transform="translate(-482.875 -3062.31)"/>
</svg>
