<svg xmlns="http://www.w3.org/2000/svg" viewBox="0 0 31 31"><defs><style>.cls-1{fill:#040707;fill-opacity:0;stroke:#ea3c27;stroke-linejoin:round;}.cls-2{fill:#ea3c27;}</style></defs><title>icon_phone_reg</title><g id="Layer_2" data-name="Layer 2"><g id="Layer_1-2" data-name="Layer 1"><path id="icon_phone_reg" data-name="icon phone reg" class="cls-2" d="M19.61,17.61l-1.56,1.55-6.21-6.22,1.55-1.55L9.5,7.5s-1.87,1.71-2,3.07c-.17,1.82,1.76,5.12,4.78,8.14s6.32,4.95,8.14,4.78c1.36-.12,3.07-2,3.07-2Zm2.41-3h1.05a6.69,6.69,0,0,0-6.68-6.68V9A5.64,5.64,0,0,1,22,14.61Zm-2.46,0h1.05a4.22,4.22,0,0,0-4.22-4.22v1.05a3.17,3.17,0,0,1,3.17,3.16Z"/></g></g></svg>