<svg xmlns="http://www.w3.org/2000/svg" viewBox="0 0 39.6 15"><defs><style>.cls-1{fill:#09161c;}.cls-2{fill:#c9dbe2;}</style></defs><title>icon_fast_shipping_product</title><g id="Layer_2" data-name="Layer 2"><g id="objects"><path class="cls-1" d="M39.17,7.13c-.43-.2-1.78-.81-2.81-1.18,0,.07-1.68-3.25-2.26-4.31-.16-.29-.55-.32-1.05-.33H29.13L25.21,12.73h3.31a4.9,4.9,0,0,1,.14-.56,5.22,5.22,0,0,1,4.62-3.31,2.32,2.32,0,0,1,2.48,1.84h2.84l1-2.83A.62.62,0,0,0,39.17,7.13Zm-10,.3s-.12.06-.21.06h-1.2c-.08,0-.14,0-.13-.06l.23-.66a.29.29,0,0,1,.2-.15h1.2c.08,0,.15.11.13.15ZM34.48,6H28.81c-.33,0-.62-.19-.51-.51l1-2.91a1.17,1.17,0,0,1,.92-.67h2.9c.38,0,.49.23.64.49a22.21,22.21,0,0,1,1.53,3C35.31,5.88,35,6,34.48,6Z"/><polygon class="cls-1" points="7.95 8.62 26 8.65 28.95 0.05 10.9 0.02 7.95 8.62"/><line class="cls-2" x1="39.46" y1="7.62" x2="39.46" y2="7.62"/><path class="cls-1" d="M10.6,12.19a2.5,2.5,0,0,0-.13,1.16A1.93,1.93,0,0,0,12.56,15a4.36,4.36,0,0,0,3.2-1.61,3.73,3.73,0,0,0,.66-1.15,2,2,0,0,0-2-2.77A4.36,4.36,0,0,0,10.6,12.19Zm1.11,0a2.7,2.7,0,0,1,2.39-1.71,1.21,1.21,0,0,1,1.21,1.72,2.7,2.7,0,0,1-2.39,1.71A1.21,1.21,0,0,1,11.71,12.2Z"/><polygon class="cls-1" points="38.52 12.75 35.3 12.75 35.86 11.14 39.07 11.15 38.52 12.75"/><path class="cls-1" d="M10,12.14a5.24,5.24,0,0,1,3-3H9.44L8.24,12.7h1.7A2.17,2.17,0,0,1,10,12.14Z"/><path class="cls-1" d="M16.07,9.17a2.34,2.34,0,0,1,.94,3,2.87,2.87,0,0,1-.28.56l9.1,0L27,9.17Z"/><path class="cls-1" d="M29.22,12.23a2.49,2.49,0,0,0-.13,1.16A1.93,1.93,0,0,0,31.18,15a4.36,4.36,0,0,0,3.2-1.61A3.73,3.73,0,0,0,35,12.24a2,2,0,0,0-2-2.77A4.36,4.36,0,0,0,29.22,12.23Zm1.11,0a2.7,2.7,0,0,1,2.39-1.71,1.21,1.21,0,0,1,1.21,1.72,2.7,2.7,0,0,1-2.39,1.71A1.21,1.21,0,0,1,30.33,12.23Z"/><polygon class="cls-1" points="0 0 8.09 1.62 0.54 1.6 7.49 3.37 1.03 3.36 6.94 4.97 1.57 4.96 7.82 6.75 10.14 0.02 0 0"/></g></g></svg>