<svg xmlns="http://www.w3.org/2000/svg" width="33.938" height="32" viewBox="0 0 33.938 32">
  <metadata><?xpacket begin="﻿" id="W5M0MpCehiHzreSzNTczkc9d"?>
<x:xmpmeta xmlns:x="adobe:ns:meta/" x:xmptk="Adobe XMP Core 5.6-c138 79.159824, 2016/09/14-01:09:01        ">
   <rdf:RDF xmlns:rdf="http://www.w3.org/1999/02/22-rdf-syntax-ns#">
      <rdf:Description rdf:about=""/>
   </rdf:RDF>
</x:xmpmeta>
                                                                                                    
                                                                                                    
                                                                                                    
                                                                                                    
                                                                                                    
                                                                                                    
                                                                                                    
                                                                                                    
                                                                                                    
                                                                                                    
                                                                                                    
                                                                                                    
                                                                                                    
                                                                                                    
                                                                                                    
                                                                                                    
                                                                                                    
                                                                                                    
                                                                                                    
                                                                                                    
                           
<?xpacket end="w"?></metadata>
<defs>
    <style>
      .cls-1 {
        fill: #fff;
        fill-rule: evenodd;
      }
    </style>
  </defs>
  <path id="icon_hanger" class="cls-1" d="M416.68,384.683H398.76V366.756h1.28V370.6a2.56,2.56,0,1,0,5.12,0,0.64,0.64,0,1,0-1.28,0,1.28,1.28,0,1,1-2.56,0v-3.842h5.12V370.6a2.56,2.56,0,1,0,5.12,0,0.64,0.64,0,1,0-1.28,0,1.28,1.28,0,0,1-2.56,0v-3.842h5.12V370.6a2.56,2.56,0,1,0,5.12,0,0.64,0.64,0,1,0-1.28,0,1.28,1.28,0,0,1-2.56,0v-3.842h2.56v-1.28H398.76v-3.842a0.641,0.641,0,0,0-.64-0.64h-12.8a0.641,0.641,0,0,0-.64.64v23.049a0.641,0.641,0,0,0-.64.64v7.043a0.641,0.641,0,0,0,.64.64h32a0.641,0.641,0,0,0,.64-0.64v-7.043A0.641,0.641,0,0,0,416.68,384.683Zm-19.2-19.207v19.207h-5.12V362.274h5.12v3.2Zm-11.52-3.2h5.12v22.409h-5.12V362.274Zm30.08,29.452H385.32v-5.763h30.72v5.763Zm-17.28-4.482h3.84v1.28h-3.84v-1.28Zm-9.6-15.366h1.28v3.2h-1.28v-3.2Zm6.4,0h1.28v3.2h-1.28v-3.2Z" transform="translate(-384.031 -361)"/>
</svg>
