<svg xmlns="http://www.w3.org/2000/svg" width="32" height="32" viewBox="0 0 32 32">
  <metadata><?xpacket begin="﻿" id="W5M0MpCehiHzreSzNTczkc9d"?>
<x:xmpmeta xmlns:x="adobe:ns:meta/" x:xmptk="Adobe XMP Core 5.6-c138 79.159824, 2016/09/14-01:09:01        ">
   <rdf:RDF xmlns:rdf="http://www.w3.org/1999/02/22-rdf-syntax-ns#">
      <rdf:Description rdf:about=""/>
   </rdf:RDF>
</x:xmpmeta>
                                                                                                    
                                                                                                    
                                                                                                    
                                                                                                    
                                                                                                    
                                                                                                    
                                                                                                    
                                                                                                    
                                                                                                    
                                                                                                    
                                                                                                    
                                                                                                    
                                                                                                    
                                                                                                    
                                                                                                    
                                                                                                    
                                                                                                    
                                                                                                    
                                                                                                    
                                                                                                    
                           
<?xpacket end="w"?></metadata>
<defs>
    <style>
      .cls-1 {
        fill: #fff;
        fill-rule: evenodd;
      }
    </style>
  </defs>
  <path id="icon_kitchen" class="cls-1" d="M255.474,245.336h-11.2v-1.6a0.534,0.534,0,0,0-.534-0.533h-3.218a2.663,2.663,0,0,0,1.084-2.135,0.534,0.534,0,0,0-.534-0.533H236.8a0.533,0.533,0,0,0-.533.533,2.658,2.658,0,0,0,1.084,2.135h-2.7a2.658,2.658,0,0,0,1.084-2.135,0.533,0.533,0,0,0-.533-0.533h-4.269a0.534,0.534,0,0,0-.534.533,2.663,2.663,0,0,0,1.084,2.135h-6.953a0.534,0.534,0,0,0-.534.533v11.739a0.534,0.534,0,0,0,.534.534h30.948a0.534,0.534,0,0,0,.534-0.534v-9.6A0.534,0.534,0,0,0,255.474,245.336Zm-21.877,9.6h-8.538V247.47H233.6v7.471Zm0-8.538h-8.538v-2.134H233.6V246.4Zm-1.067-3.825a1.6,1.6,0,0,1-.976-0.977h3.019A1.6,1.6,0,0,1,232.53,242.578Zm7.912-.977a1.6,1.6,0,0,1-3.019,0h3.019Zm2.76,13.34h-8.538V247.47H243.2v7.471Zm0-9.071V246.4h-8.538v-2.134H243.2v1.6Zm11.739,9.071H244.269V246.4h10.672v8.538Zm-30.415-19.21h19.209a0.534,0.534,0,0,0,.534-0.533V232.53h11.2a0.533,0.533,0,0,0,.437-0.84l-3.638-5.2v-1.966a0.534,0.534,0,0,0-.534-0.534H248a0.534,0.534,0,0,0-.534.534v1.966l-3.2,4.573v-6.539a0.534,0.534,0,0,0-.534-0.534H224.526a0.534,0.534,0,0,0-.534.534V235.2A0.534,0.534,0,0,0,224.526,235.731Zm23.915-8.765a0.534,0.534,0,0,0,.1-0.306v-1.6h2.668v1.6a0.533,0.533,0,0,0,.1.306l3.148,4.5h-9.157Zm-13.777-1.907H243.2v2.135h-8.538v-2.135Zm0,3.2H243.2v6.4h-8.538v-6.4Zm-9.6-3.2H233.6v2.135h-8.538v-2.135Zm0,3.2H233.6v6.4h-8.538v-6.4Zm22.411,14.407a0.534,0.534,0,0,0-.533.534v0.533h-1.6a0.534,0.534,0,1,0,0,1.067h9.6a0.534,0.534,0,0,0,0-1.067h-1.634l0.032-.5a0.535,0.535,0,0,0-1.067-.069l-0.034.568H248V243.2A0.534,0.534,0,0,0,247.47,242.668Zm-2.134,11.739h8.538a0.533,0.533,0,0,0,.533-0.533v-6.4a0.533,0.533,0,0,0-.533-0.533h-8.538a0.534,0.534,0,0,0-.534.533v6.4A0.534,0.534,0,0,0,245.336,254.407Zm0.534-6.4h7.47v5.336h-7.47V248Zm-13.34-18.142a0.534,0.534,0,0,0-.534.533v2.135a0.534,0.534,0,0,0,1.067,0V230.4A0.533,0.533,0,0,0,232.53,229.862Zm9.6,0a0.533,0.533,0,0,0-.533.533v2.135a0.534,0.534,0,0,0,1.067,0V230.4A0.534,0.534,0,0,0,242.134,229.862Zm0,22.944a0.534,0.534,0,0,0,.534-0.533v-2.135a0.534,0.534,0,0,0-1.067,0v2.135A0.533,0.533,0,0,0,242.134,252.806Zm-9.6,0a0.533,0.533,0,0,0,.533-0.533v-2.135a0.534,0.534,0,0,0-1.067,0v2.135A0.534,0.534,0,0,0,232.53,252.806Zm18.142-4.268h-2.134a0.534,0.534,0,1,0,0,1.067h2.134A0.534,0.534,0,1,0,250.672,248.538Z" transform="translate(-224 -224)"/>
</svg>
