<svg xmlns="http://www.w3.org/2000/svg" viewBox="0 0 21 20"><defs><style>.cls-1{fill:#040707;}.cls-2{fill:#fff;}</style></defs><title>icon_viber_contact</title><g id="Layer_2" data-name="Layer 2"><g id="Capa_1" data-name="Capa 1"><path class="cls-2" d="M17.14,6.45v0a4.7,4.7,0,0,0-3.24-3h0a18.87,18.87,0,0,0-6.77,0h0a4.7,4.7,0,0,0-3.24,3v0a12,12,0,0,0,0,5.44v0a4.72,4.72,0,0,0,3.06,2.92v1.44a.61.61,0,0,0,1,.4L9.5,15.15l1,0a18.92,18.92,0,0,0,3.39-.31h0a4.7,4.7,0,0,0,3.24-3v0A12,12,0,0,0,17.14,6.45Zm-1.21,5.17a3.55,3.55,0,0,1-2.28,2.08A17.58,17.58,0,0,1,10,14L10,14,8.86,15.1,7.67,16.27a.14.14,0,0,1-.24-.09V13.79a.08.08,0,0,0-.07-.08h0a3.56,3.56,0,0,1-2.28-2.08,10.92,10.92,0,0,1,0-4.91A3.56,3.56,0,0,1,7.36,4.62a17.57,17.57,0,0,1,6.29,0,3.55,3.55,0,0,1,2.28,2.08A10.91,10.91,0,0,1,15.93,11.62Z"/><path class="cls-2" d="M12.48,12.72c-.14,0-.27-.07-.4-.12a9.08,9.08,0,0,1-3.41-2.17,8.4,8.4,0,0,1-1.3-1.9c-.17-.32-.31-.66-.45-1a.84.84,0,0,1,.27-.85,2.09,2.09,0,0,1,.7-.5.47.47,0,0,1,.56.13,6.94,6.94,0,0,1,.87,1.16.54.54,0,0,1-.16.75L9,8.37a.6.6,0,0,0-.14.14.37.37,0,0,0,0,.34,3.15,3.15,0,0,0,1.83,1.92,1,1,0,0,0,.47.11c.29,0,.38-.33.58-.49a.57.57,0,0,1,.66,0l.62.4a7.06,7.06,0,0,1,.58.42.43.43,0,0,1,.14.54,1.88,1.88,0,0,1-.83.87,2.08,2.08,0,0,1-.36.11C12.34,12.68,12.61,12.69,12.48,12.72Z"/><path class="cls-2" d="M10.5,5.77a3.38,3.38,0,0,1,3.36,2.69,8,8,0,0,1,.09.82.19.19,0,0,1-.19.23c-.13,0-.2-.11-.2-.22s0-.46-.06-.68a2.93,2.93,0,0,0-2.42-2.39c-.19,0-.38,0-.57-.06s-.28,0-.3-.16a.2.2,0,0,1,.2-.22h.1C12.19,5.81,10.47,5.77,10.5,5.77Z"/><path class="cls-2" d="M13.06,8.93A.7.7,0,0,1,13,9a.19.19,0,0,1-.36,0,.46.46,0,0,1,0-.15,1.81,1.81,0,0,0-1.06-1.69A2.38,2.38,0,0,0,11,7l-.29,0a.18.18,0,1,1,0-.37,2.75,2.75,0,0,1,1.1.27A2.13,2.13,0,0,1,13,8.55s0,.07,0,.1,0,.17,0,.28S13.05,8.82,13.06,8.93Z"/><path class="cls-2" d="M12,8.89a.2.2,0,0,1-.23-.19,1.93,1.93,0,0,0,0-.26A.72.72,0,0,0,11.46,8a.74.74,0,0,0-.23-.1c-.1,0-.21,0-.31,0a.18.18,0,0,1-.16-.21A.2.2,0,0,1,11,7.5a1.13,1.13,0,0,1,1.19,1.1.48.48,0,0,1,0,.16.16.16,0,0,1-.15.13Z"/></g></g></svg>