<svg xmlns="http://www.w3.org/2000/svg" width="75.812" height="48" viewBox="0 0 75.812 48">
  <metadata><?xpacket begin="﻿" id="W5M0MpCehiHzreSzNTczkc9d"?>
<x:xmpmeta xmlns:x="adobe:ns:meta/" x:xmptk="Adobe XMP Core 5.6-c138 79.159824, 2016/09/14-01:09:01        ">
   <rdf:RDF xmlns:rdf="http://www.w3.org/1999/02/22-rdf-syntax-ns#">
      <rdf:Description rdf:about=""/>
   </rdf:RDF>
</x:xmpmeta>
                                                                                                    
                                                                                                    
                                                                                                    
                                                                                                    
                                                                                                    
                                                                                                    
                                                                                                    
                                                                                                    
                                                                                                    
                                                                                                    
                                                                                                    
                                                                                                    
                                                                                                    
                                                                                                    
                                                                                                    
                                                                                                    
                                                                                                    
                                                                                                    
                                                                                                    
                                                                                                    
                           
<?xpacket end="w"?></metadata>
<defs>
    <style>
      .cls-1 {
        fill: #333;
        fill-rule: evenodd;
      }
    </style>
  </defs>
  <path id="icon_fast_deliveru_brw_trust" class="cls-1" d="M991.605,2833.35l-1.963-7.86a1.183,1.183,0,0,0,.939-1.16v-1.27a4.986,4.986,0,0,0-4.986-4.98h-8.944v-2.62a2.455,2.455,0,0,0-2.454-2.45H928.606a2.455,2.455,0,0,0-2.454,2.45V2837a1.188,1.188,0,1,0,2.375,0v-21.54a0.082,0.082,0,0,1,.079-0.08H974.2a0.082,0.082,0,0,1,.079.08V2837a1.188,1.188,0,1,0,2.375,0v-1.35h14.012a3.9,3.9,0,0,1,3.689,2.7H990.66a1.185,1.185,0,0,0-1.187,1.18v2.54a3.725,3.725,0,0,0,3.72,3.72h1.346v5.23h-3.105a7.515,7.515,0,0,0-14.212,0H976.65v-8.95a1.187,1.187,0,1,0-2.374,0v8.94H949.643a7.52,7.52,0,0,0-14.213,0h-6.824a0.074,0.074,0,0,1-.079-0.07v-2.62h5.144a1.185,1.185,0,1,0,0-2.37h-11.4a1.185,1.185,0,1,0,0,2.37h3.878v2.62a2.455,2.455,0,0,0,2.454,2.45h6.413c0,0.03,0,.05,0,0.08a7.52,7.52,0,1,0,15.039,0c0-.03,0-0.05,0-0.08h26.757c0,0.03,0,.05,0,0.08a7.52,7.52,0,1,0,15.039,0c0-.03,0-0.05,0-0.08h3.881a1.186,1.186,0,0,0,1.187-1.19v-12.67A6.268,6.268,0,0,0,991.605,2833.35Zm-14.954-12.9H985.6a2.614,2.614,0,0,1,2.612,2.61v0.08H976.651v-2.69Zm0,12.83v-7.76H987.2l1.939,7.76H976.651Zm-34.115,25.34a5.15,5.15,0,1,1,5.145-5.15A5.153,5.153,0,0,1,942.536,2858.62Zm41.792,0a5.15,5.15,0,1,1,5.145-5.15A5.153,5.153,0,0,1,984.328,2858.62Zm10.211-15.21h-1.346a1.343,1.343,0,0,1-1.345-1.34v-1.35h2.691v2.69h0Zm-52,7.61a2.45,2.45,0,1,0,2.454,2.45A2.455,2.455,0,0,0,942.536,2851.02Zm41.792,0a2.45,2.45,0,1,0,2.454,2.45A2.455,2.455,0,0,0,984.328,2851.02Zm-13.93-5.07h-17.73a1.185,1.185,0,1,0,0,2.37H970.4A1.185,1.185,0,1,0,970.4,2845.95ZM940,2840.88h-15.2a1.19,1.19,0,0,0,0,2.38H940A1.19,1.19,0,0,0,940,2840.88Zm6.549-16.22h-1.984l-3.68,2.93,1.164,1.45,1.312-1.05c0.157-.13.435-0.39,0.836-0.79l-0.039,1.18-0.023,1.09v6.61h2.414v-11.42Zm7.062,8.11v-1.96h-4.2v1.96h4.2Zm7.481-7.56a4.807,4.807,0,0,0-2.8-.72,6.207,6.207,0,0,0-3.726,1.13l1.117,1.66a6.146,6.146,0,0,1,1.293-.65,3.857,3.857,0,0,1,1.144-.18q1.624,0,1.625,1.29a1.244,1.244,0,0,1-.613,1.19,4,4,0,0,1-1.941.35h-0.883v1.85h0.867a4.909,4.909,0,0,1,2.094.34,1.171,1.171,0,0,1,.656,1.14,1.511,1.511,0,0,1-.57,1.31,3.083,3.083,0,0,1-1.766.4,6.17,6.17,0,0,1-1.578-.21,7.067,7.067,0,0,1-1.461-.55v2.06a8.313,8.313,0,0,0,3.3.62,5.523,5.523,0,0,0,3.414-.92,3.054,3.054,0,0,0,1.195-2.57,2.366,2.366,0,0,0-.711-1.8,3.711,3.711,0,0,0-2.093-.84v-0.05a3.316,3.316,0,0,0,1.82-1.03,2.676,2.676,0,0,0,.648-1.82A2.311,2.311,0,0,0,961.1,2825.21Z" transform="translate(-921.094 -2813)"/>
</svg>
