<svg xmlns="http://www.w3.org/2000/svg" width="43.907" height="47.97" viewBox="0 0 43.907 47.97">
  <metadata><?xpacket begin="﻿" id="W5M0MpCehiHzreSzNTczkc9d"?>
<x:xmpmeta xmlns:x="adobe:ns:meta/" x:xmptk="Adobe XMP Core 5.6-c138 79.159824, 2016/09/14-01:09:01        ">
   <rdf:RDF xmlns:rdf="http://www.w3.org/1999/02/22-rdf-syntax-ns#">
      <rdf:Description rdf:about=""/>
   </rdf:RDF>
</x:xmpmeta>
                                                                                                    
                                                                                                    
                                                                                                    
                                                                                                    
                                                                                                    
                                                                                                    
                                                                                                    
                                                                                                    
                                                                                                    
                                                                                                    
                                                                                                    
                                                                                                    
                                                                                                    
                                                                                                    
                                                                                                    
                                                                                                    
                                                                                                    
                                                                                                    
                                                                                                    
                                                                                                    
                           
<?xpacket end="w"?></metadata>
<defs>
    <style>
      .cls-1 {
        fill-rule: evenodd;
      }
    </style>
  </defs>
  <path id="icon_in_stock_brw_trust" class="cls-1" d="M539.74,2851.36a2.95,2.95,0,0,0-3.894-1.67l-5.272,2.24a2.6,2.6,0,0,0,.027-0.29,2.85,2.85,0,0,0-2.846-2.85h-6.307a4.178,4.178,0,0,1-1.837-.43,19.122,19.122,0,0,0-8.5-2.01h-0.435a0.818,0.818,0,0,0-.813.82,0.81,0.81,0,0,0,.813.81h0.435a17.328,17.328,0,0,1,7.768,1.84,5.84,5.84,0,0,0,2.564.6h6.307a1.221,1.221,0,0,1,.269,2.41c-0.106.01-.211,0.03-0.319,0.03H518a0.815,0.815,0,0,0,0,1.63h9.756c0.016,0,.032-0.01.049-0.01a5.034,5.034,0,0,0,1.876-.39l6.8-2.89a1.279,1.279,0,0,1,1.015,0,1.317,1.317,0,0,1,.732.76,1.387,1.387,0,0,1-.022,1.08,1.352,1.352,0,0,1-.752.72l-12.56,4.79a12.412,12.412,0,0,1-9.149-.1l-6.687-2.78v-9.32a0.81,0.81,0,0,0-.813-0.81h-6.5a0.81,0.81,0,0,0-.813.81h-4.066a0.818,0.818,0,0,0-.813.82,0.81,0.81,0,0,0,.813.81h4.066v4.07a0.813,0.813,0,0,0,1.626,0v-4.88h4.878v9.76h-4.878v-1.63a0.813,0.813,0,0,0-1.626,0v0.82h-4.066a0.81,0.81,0,1,0,0,1.62h4.066a0.818,0.818,0,0,0,.813.82h6.5a0.818,0.818,0,0,0,.813-0.82v-0.31l6.07,2.53a14.063,14.063,0,0,0,10.347.11l12.559-4.79A3.02,3.02,0,0,0,539.74,2851.36Zm-0.637-32.07v-0.03a0.8,0.8,0,0,0-.143-0.26c-0.019-.02-0.041-0.04-0.061-0.06a0.6,0.6,0,0,0-.157-0.12,0.383,0.383,0,0,0-.093-0.05,0.251,0.251,0,0,0-.073-0.04l-17.887-5.69a0.829,0.829,0,0,0-.493,0l-17.887,5.69a0.819,0.819,0,0,0-.571.77v19.53a0.817,0.817,0,0,0,.569.78l17.887,5.69a0.826,0.826,0,0,0,.492,0l17.887-5.69a0.825,0.825,0,0,0,.565-0.78V2819.5A0.81,0.81,0,0,0,539.1,2819.29Zm-18.665-4.63,15.2,4.84-3.145,1.01-15.2-4.85Zm-5.826,1.86,15.2,4.84-3.144,1-15.2-4.84Zm22.9,21.91-16.261,5.18v-2.95a0.813,0.813,0,1,0-1.626,0v2.95l-16.261-5.17V2820.1l5.42-1.73,15.2,4.84-3.55,1.13-13.578-4.32a0.817,0.817,0,0,0-1.021.53,0.808,0.808,0,0,0,.528,1.02l13.258,4.22v11.61a0.813,0.813,0,1,0,1.626,0v-11.61l4.607-1.46v5.4a0.81,0.81,0,0,0,.813.81,0.679,0.679,0,0,0,.244-0.04l1.9-.6a0.824,0.824,0,0,0,.529-1.03,0.813,0.813,0,0,0-1.022-.52l-0.837.26v-4.8l4.2-1.33v4.8l-0.923.29a0.814,0.814,0,0,0,.243,1.59,0.676,0.676,0,0,0,.244-0.04l1.491-.47a0.819,0.819,0,0,0,.57-0.78v-5.92l4.2-1.33v17.81h0Zm-31.709-5.09a0.81,0.81,0,0,0-.813.81v2.44a0.813,0.813,0,0,0,1.626,0v-2.44A0.81,0.81,0,0,0,505.8,2833.34Zm3.252,0.81a0.81,0.81,0,0,0-.813.81v2.44a0.813,0.813,0,1,0,1.626,0v-2.44A0.81,0.81,0,0,0,509.055,2834.15Z" transform="translate(-496.031 -2813.03)"/>
</svg>
