<svg xmlns="http://www.w3.org/2000/svg" width="21" height="20" viewBox="0 0 21 20">
  <metadata><?xpacket begin="﻿" id="W5M0MpCehiHzreSzNTczkc9d"?>
<x:xmpmeta xmlns:x="adobe:ns:meta/" x:xmptk="Adobe XMP Core 5.6-c138 79.159824, 2016/09/14-01:09:01        ">
   <rdf:RDF xmlns:rdf="http://www.w3.org/1999/02/22-rdf-syntax-ns#">
      <rdf:Description rdf:about=""/>
   </rdf:RDF>
</x:xmpmeta>
                                                                                                    
                                                                                                    
                                                                                                    
                                                                                                    
                                                                                                    
                                                                                                    
                                                                                                    
                                                                                                    
                                                                                                    
                                                                                                    
                                                                                                    
                                                                                                    
                                                                                                    
                                                                                                    
                                                                                                    
                                                                                                    
                                                                                                    
                                                                                                    
                                                                                                    
                                                                                                    
                           
<?xpacket end="w"?></metadata>
<defs>
    <style>
      .cls-1 {
        fill-rule: evenodd;
      }
    </style>
  </defs>
  <path id="icon_hours_contact" class="cls-1" d="M411.487,645.913c-0.166.041-.336,0.078-0.5,0.109a0.81,0.81,0,0,0,.3,1.592c0.2-.037.4-0.081,0.6-0.13A0.809,0.809,0,0,0,411.487,645.913Zm5.986-10.85a0.8,0.8,0,0,0,.3.407,0.809,0.809,0,0,0,1.235-.916c-0.064-.193-0.135-0.387-0.21-0.576a0.809,0.809,0,0,0-1.5.6C417.359,634.738,417.419,634.9,417.473,635.063Zm-3.356,9.694c-0.143.1-.29,0.186-0.439,0.271a0.81,0.81,0,0,0,.809,1.4c0.177-.1.352-0.211,0.522-0.323A0.809,0.809,0,0,0,414.117,644.757Zm5.4-7.433a0.81,0.81,0,0,0-1.618.064c0.007,0.17.008,0.344,0,.514a0.806,0.806,0,0,0,.343.68,0.8,0.8,0,0,0,.448.147,0.809,0.809,0,0,0,.827-0.791C419.522,637.734,419.521,637.528,419.513,637.324Zm-2.173,5.3a0.808,0.808,0,0,0-1.133.162c-0.1.137-.211,0.272-0.322,0.4a0.811,0.811,0,0,0,.092,1.141,0.626,0.626,0,0,0,.059.046,0.81,0.81,0,0,0,1.082-.137c0.132-.156.261-0.317,0.384-0.481A0.809,0.809,0,0,0,417.34,642.628Zm1.19-2.926a0.808,0.808,0,0,0-1.014.53c-0.051.163-.108,0.327-0.169,0.487a0.81,0.81,0,0,0,.289.95,0.826,0.826,0,0,0,.179.1,0.809,0.809,0,0,0,1.044-.469c0.073-.19.14-0.385,0.2-0.579A0.809,0.809,0,0,0,418.53,639.7Zm-10.575,6.327a8.335,8.335,0,0,1-2.076-.66l-0.023-.012c-0.155-.073-0.31-0.151-0.46-0.233h0a8.592,8.592,0,0,1-.806-0.5,8.446,8.446,0,0,1,.035-13.835l0.03-.02a8.458,8.458,0,0,1,9.482-.076l-0.632.914c-0.176.254-.068,0.439,0.24,0.411l2.747-.245a0.453,0.453,0,0,0,.41-0.592l-0.738-2.658c-0.083-.3-0.294-0.334-0.47-0.08l-0.634.916a10,10,0,0,0-7.325-1.557c-0.259.045-.514,0.1-0.766,0.163h0l-0.03.009a9.976,9.976,0,0,0-5.534,3.709c-0.012.014-.024,0.027-0.035,0.042-0.046.062-.091,0.125-0.136,0.189-0.073.1-.145,0.21-0.214,0.316-0.008.013-.015,0.026-0.022,0.039a9.978,9.978,0,0,0-1.6,5.886,0.147,0.147,0,0,1,0,.021c0.01,0.2.026,0.409,0.048,0.611,0,0.013,0,.026.006,0.039q0.033,0.306.086,0.612a10,10,0,0,0,2.817,5.417l0.011,0.011,0,0a10.1,10.1,0,0,0,1.29,1.078,9.986,9.986,0,0,0,4.013,1.68A0.81,0.81,0,0,0,407.955,646.029Zm1-14.855a0.655,0.655,0,0,0-.655.655v6.525l5.967,3.085a0.648,0.648,0,0,0,.3.073,0.655,0.655,0,0,0,.3-1.237l-5.26-2.718v-5.728A0.654,0.654,0,0,0,408.956,631.174Z" transform="translate(-398.969 -627.625)"/>
</svg>
