<svg xmlns="http://www.w3.org/2000/svg" viewBox="0 0 31 31"><defs><style>.cls-1{fill:#040707;fill-opacity:0;stroke:#ea3c27;stroke-linejoin:round;}.cls-2{fill:#ea3c27;}</style></defs><title>icon_email_reg</title><g id="Layer_2" data-name="Layer 2"><g id="Layer_1-2" data-name="Layer 1"><path id="icon_email_reg" data-name="icon email reg" class="cls-2" d="M8,11.31l6.66,3.58a1.91,1.91,0,0,0,1.61,0L23,11.31c.43-.23.84-1,0-1H8C7.19,10.35,7.6,11.08,8,11.31Zm15.12,1.78-6.85,3.58a1.91,1.91,0,0,1-1.61,0L7.85,13.09c-.35-.18-.34,0-.34.2V19.8a1,1,0,0,0,.88.85H22.61a1,1,0,0,0,.88-.85V13.28c0-.16,0-.37-.34-.19Z"/></g></g></svg>