<svg xmlns="http://www.w3.org/2000/svg" viewBox="0 0 59.07 37"><defs><style>.cls-1{fill:#231f20;}</style></defs><title>icon_fast_shipping</title><g id="Layer_2" data-name="Layer 2"><g id="objects"><path class="cls-1" d="M38.68,32.08A4.92,4.92,0,1,1,43.6,37,4.93,4.93,0,0,1,38.68,32.08Zm1.21,0a3.71,3.71,0,1,0,3.71-3.71A3.71,3.71,0,0,0,39.9,32.08Z"/><path class="cls-1" d="M0,32.08A4.92,4.92,0,1,1,4.92,37,4.93,4.93,0,0,1,0,32.08Zm1.21,0a3.71,3.71,0,1,0,3.71-3.71A3.71,3.71,0,0,0,1.21,32.08Z"/><path class="cls-1" d="M11.21,31.7A5.88,5.88,0,0,0,10,28.19h27.7v4.48H11.13A5.91,5.91,0,0,0,11.21,31.7Z"/><path class="cls-1" d="M40.62,15V26.84a5.89,5.89,0,0,1,9.19,5.82H55V23.1L48.54,15Zm4.29,1.77,2.49-.14L52.46,23H44.92Z"/><circle class="cls-1" cx="43.6" cy="32.08" r="2.43"/><circle class="cls-1" cx="4.92" cy="32.08" r="2.43"/><path class="cls-1" d="M1.3,5V25.46H37.74V5ZM28.35,8h3.76v11.7H28.35ZM21.21,8H25v11.7H21.21ZM14.07,8h3.76v11.7H14.07ZM6.94,8h3.76v11.7H6.94Z"/><path id="icon_time" data-name="icon time" d="M52.12,7.87a1.09,1.09,0,0,0-.21-.53l.77-4.93a.35.35,0,0,0-.26-.4h0a.34.34,0,0,0-.41.24L50.6,7A1.09,1.09,0,0,0,50,8a1.08,1.08,0,0,0,1.06,1.09A1,1,0,0,0,51.39,9l2.95,1.57a.35.35,0,0,0,.46-.12h0a.37.37,0,0,0-.08-.48ZM50.55,8a.53.53,0,1,1,.52.54A.53.53,0,0,1,50.55,8h0Zm8.52,0a8.19,8.19,0,0,1-5.55,7.8V14.64A7.1,7.1,0,0,0,58,8a6.93,6.93,0,0,0-13.85-.37q0,.19,0,.37a7.17,7.17,0,0,0,.09,1.15H43.15A8.41,8.41,0,0,1,43.07,8a8,8,0,0,1,16,0Z"/></g></g></svg>