<svg xmlns="http://www.w3.org/2000/svg" width="20" height="20" viewBox="0 0 20 20">
  <metadata><?xpacket begin="﻿" id="W5M0MpCehiHzreSzNTczkc9d"?>
<x:xmpmeta xmlns:x="adobe:ns:meta/" x:xmptk="Adobe XMP Core 5.6-c138 79.159824, 2016/09/14-01:09:01        ">
   <rdf:RDF xmlns:rdf="http://www.w3.org/1999/02/22-rdf-syntax-ns#">
      <rdf:Description rdf:about=""/>
   </rdf:RDF>
</x:xmpmeta>
                                                                                                    
                                                                                                    
                                                                                                    
                                                                                                    
                                                                                                    
                                                                                                    
                                                                                                    
                                                                                                    
                                                                                                    
                                                                                                    
                                                                                                    
                                                                                                    
                                                                                                    
                                                                                                    
                                                                                                    
                                                                                                    
                                                                                                    
                                                                                                    
                                                                                                    
                                                                                                    
                           
<?xpacket end="w"?></metadata>
<defs>
    <style>
      .cls-1 {
        fill-rule: evenodd;
      }
    </style>
  </defs>
  <path id="icon_catalog" class="cls-1" d="M904.371,3912.7a0.324,0.324,0,0,0,.3.18,0.4,0.4,0,0,0,.151-0.03,27.418,27.418,0,0,1,2.952-1.31,0.339,0.339,0,0,0,.217-0.42,0.328,0.328,0,0,0-.419-0.22,28.726,28.726,0,0,0-3.053,1.35A0.338,0.338,0,0,0,904.371,3912.7Zm0.3-3.82a0.4,0.4,0,0,0,.151-0.03,27.418,27.418,0,0,1,2.952-1.31,0.339,0.339,0,0,0,.217-0.42,0.328,0.328,0,0,0-.419-0.22,28.726,28.726,0,0,0-3.053,1.35,0.338,0.338,0,0,0-.146.45A0.324,0.324,0,0,0,904.669,3908.88Zm8.007-.66a0.333,0.333,0,0,0-.334.33v13a1,1,0,0,1-1,1h-8.007v-0.76a9.81,9.81,0,0,1,3-.57,17.074,17.074,0,0,1,4.9.65,0.339,0.339,0,0,0,.439-0.32v-14.67a0.33,0.33,0,0,0-.261-0.32s-0.262-.06-0.709-0.14a0.338,0.338,0,0,0-.388.27,0.323,0.323,0,0,0,.267.38c0.171,0.04.314,0.06,0.424,0.09v13.95a18.721,18.721,0,0,0-4.672-.56,10.532,10.532,0,0,0-3.323.64,7.883,7.883,0,0,0-3.016-.64,22.676,22.676,0,0,0-5,.57v-13.98a22.233,22.233,0,0,1,5-.59,7.252,7.252,0,0,1,2.669.55v13.12a0.335,0.335,0,0,0,.169.29,0.316,0.316,0,0,0,.337-0.01,38.437,38.437,0,0,1,6.273-2.97,0.324,0.324,0,0,0,.228-0.31v-13.67a0.322,0.322,0,0,0-.144-0.27,0.309,0.309,0,0,0-.307-0.04,36.439,36.439,0,0,0-5.4,2.69,0.336,0.336,0,0,0-.106.46,0.329,0.329,0,0,0,.46.11,34.432,34.432,0,0,1,4.828-2.46v12.94a37.087,37.087,0,0,0-5.672,2.66v-12.76a0.322,0.322,0,0,0-.185-0.29,7.635,7.635,0,0,0-3.152-.71,22.1,22.1,0,0,0-5.43.68,0.34,0.34,0,0,0-.242.32v14.67a0.33,0.33,0,0,0,.132.27,0.37,0.37,0,0,0,.2.07,0.3,0.3,0,0,0,.091-0.02,21.935,21.935,0,0,1,5.247-.65,7.226,7.226,0,0,1,2.669.55v0.78h-8.007a1,1,0,0,1-1-1v-13a0.334,0.334,0,0,0-.668,0v13a1.672,1.672,0,0,0,1.669,1.67h16.682a1.672,1.672,0,0,0,1.669-1.67v-13A0.334,0.334,0,0,0,912.676,3908.22Zm-8.305,2.48a0.324,0.324,0,0,0,.3.18,0.4,0.4,0,0,0,.151-0.03,27.418,27.418,0,0,1,2.952-1.31,0.339,0.339,0,0,0,.217-0.42,0.328,0.328,0,0,0-.419-0.22,28.726,28.726,0,0,0-3.053,1.35A0.338,0.338,0,0,0,904.371,3910.7Zm0,4a0.333,0.333,0,0,0,.3.19,0.419,0.419,0,0,0,.151-0.04,27.418,27.418,0,0,1,2.952-1.31,0.339,0.339,0,0,0,.217-0.42,0.328,0.328,0,0,0-.419-0.22,28.726,28.726,0,0,0-3.053,1.35A0.338,0.338,0,0,0,904.371,3914.7Zm-3.3-5.3a10.76,10.76,0,0,0-4.5.16,0.336,0.336,0,0,0,.086.66c0.029,0,.058-0.01.087-0.01a10.037,10.037,0,0,1,4.175-.16,0.336,0.336,0,0,0,.4-0.25A0.341,0.341,0,0,0,901.074,3909.4Zm0,2a10.76,10.76,0,0,0-4.5.16,0.336,0.336,0,0,0,.086.66c0.029,0,.058-0.01.087-0.01a10.037,10.037,0,0,1,4.175-.16,0.336,0.336,0,0,0,.4-0.25A0.341,0.341,0,0,0,901.074,3911.4Zm3.3,5.3a0.333,0.333,0,0,0,.3.19,0.419,0.419,0,0,0,.151-0.04,27.418,27.418,0,0,1,2.952-1.31,0.339,0.339,0,0,0,.217-0.42,0.336,0.336,0,0,0-.419-0.22,26.3,26.3,0,0,0-3.053,1.36A0.324,0.324,0,0,0,904.371,3916.7Zm-3.3-3.3a10.76,10.76,0,0,0-4.5.16,0.336,0.336,0,0,0,.086.66c0.029,0,.058-0.01.087-0.01a10.037,10.037,0,0,1,4.175-.16,0.329,0.329,0,0,0,.4-0.25A0.341,0.341,0,0,0,901.074,3913.4Zm0,4a10.76,10.76,0,0,0-4.5.16,0.336,0.336,0,0,0,.086.66,0.259,0.259,0,0,0,.087-0.01,10.037,10.037,0,0,1,4.175-.16,0.33,0.33,0,0,0,.4-0.24A0.346,0.346,0,0,0,901.074,3917.4Zm0-2a10.76,10.76,0,0,0-4.5.16,0.336,0.336,0,0,0,.086.66c0.029,0,.058-0.01.087-0.01a10.037,10.037,0,0,1,4.175-.16,0.329,0.329,0,0,0,.4-0.25A0.341,0.341,0,0,0,901.074,3915.4Z" transform="translate(-893 -3903.22)"/>
</svg>
