<svg xmlns="http://www.w3.org/2000/svg" width="70" height="48" viewBox="0 0 70 48">
  <metadata><?xpacket begin="﻿" id="W5M0MpCehiHzreSzNTczkc9d"?>
<x:xmpmeta xmlns:x="adobe:ns:meta/" x:xmptk="Adobe XMP Core 5.6-c138 79.159824, 2016/09/14-01:09:01        ">
   <rdf:RDF xmlns:rdf="http://www.w3.org/1999/02/22-rdf-syntax-ns#">
      <rdf:Description rdf:about=""/>
   </rdf:RDF>
</x:xmpmeta>
                                                                                                    
                                                                                                    
                                                                                                    
                                                                                                    
                                                                                                    
                                                                                                    
                                                                                                    
                                                                                                    
                                                                                                    
                                                                                                    
                                                                                                    
                                                                                                    
                                                                                                    
                                                                                                    
                                                                                                    
                                                                                                    
                                                                                                    
                                                                                                    
                                                                                                    
                                                                                                    
                           
<?xpacket end="w"?></metadata>
<defs>
    <style>
      .cls-1 {
        fill: #040707;
        fill-rule: evenodd;
      }
    </style>
  </defs>
  <path id="icon_payment_product" class="cls-1" d="M973.433,2861.27l-14.786-7.93a3.138,3.138,0,0,0-4.091,1.22l-8.649,15.92h-10.52a2.357,2.357,0,0,0-2.4,2.37v25.76a2.359,2.359,0,0,0,2.4,2.38h33.605a2.359,2.359,0,0,0,2.4-2.38v-6.02h0.993a0.914,0.914,0,0,0,.935-0.92v-6.89a0.922,0.922,0,0,0-.935-0.93h-0.993v-6.77a2.424,2.424,0,0,0-1.87-2.32l5.143-9.43A3.029,3.029,0,0,0,973.433,2861.27Zm-10.519-3.53-9.234,16.96h-2.63l9.877-18Zm-6.663-2.31a1.15,1.15,0,0,1,1.52-.47l1.461,0.81-10.286,18.93h-3.214ZM934.8,2872.79a0.563,0.563,0,0,1,.526-0.46h9.526l-1.286,2.32h-8.24a1.875,1.875,0,0,0-.526.05v-1.91Zm34.656,25.82a0.529,0.529,0,0,1-.526.53h-33.6a0.529,0.529,0,0,1-.526-0.53v-21.53a0.52,0.52,0,0,1,.526-0.52h33.546a0.52,0.52,0,0,1,.526.52v6.77h-3.565a2.8,2.8,0,0,0-2.805,2.78v3.18a2.789,2.789,0,0,0,2.805,2.78h3.623v6.02h0Zm1.87-12.91h0.059v5.04h-5.552a0.916,0.916,0,0,1-.935-0.93v-3.18a0.922,0.922,0,0,1,.935-0.93h5.493Zm1.637-21.3-5.611,10.3H955.784l8.766-16.03,7.948,4.28A1.011,1.011,0,0,1,972.966,2864.4Zm-3.565-.87-0.468-.23a2.573,2.573,0,0,0-3.389.98l-0.585,1.1a2.42,2.42,0,0,0-.175,1.91,2.335,2.335,0,0,0,1.227,1.45l0.468,0.23a2.591,2.591,0,0,0,1.168.29,2.634,2.634,0,0,0,2.221-1.27l0.585-1.1A2.584,2.584,0,0,0,969.4,2863.53Zm-0.643,2.49-0.585,1.1a0.655,0.655,0,0,1-.876.23l-0.468-.29a0.821,0.821,0,0,1-.292-0.34,0.446,0.446,0,0,1,.059-0.47l0.584-1.1a0.791,0.791,0,0,1,.584-0.35,0.518,0.518,0,0,1,.293.06l0.467,0.23A0.9,0.9,0,0,1,968.758,2866.02Z" transform="translate(-919 -2853)"/>
</svg>
