<svg xmlns="http://www.w3.org/2000/svg" width="48" height="48" viewBox="0 0 48 48">
  <metadata><?xpacket begin="﻿" id="W5M0MpCehiHzreSzNTczkc9d"?>
<x:xmpmeta xmlns:x="adobe:ns:meta/" x:xmptk="Adobe XMP Core 5.6-c138 79.159824, 2016/09/14-01:09:01        ">
   <rdf:RDF xmlns:rdf="http://www.w3.org/1999/02/22-rdf-syntax-ns#">
      <rdf:Description rdf:about=""/>
   </rdf:RDF>
</x:xmpmeta>
                                                                                                    
                                                                                                    
                                                                                                    
                                                                                                    
                                                                                                    
                                                                                                    
                                                                                                    
                                                                                                    
                                                                                                    
                                                                                                    
                                                                                                    
                                                                                                    
                                                                                                    
                                                                                                    
                                                                                                    
                                                                                                    
                                                                                                    
                                                                                                    
                                                                                                    
                                                                                                    
                           
<?xpacket end="w"?></metadata>
<defs>
    <style>
      .cls-1 {
        fill-rule: evenodd;
      }
    </style>
  </defs>
  <path id="icon_happy_clients_brw_trust" class="cls-1" d="M1399,3079.5a9.26,9.26,0,1,0-9.26-9.26A9.278,9.278,0,0,0,1399,3079.5Zm0-16.98a7.72,7.72,0,1,1-7.72,7.72A7.725,7.725,0,0,1,1399,3062.52Zm-3.33,20.12a0.767,0.767,0,0,0,.14,1.52c0.05,0,.1-0.01.14-0.01a16.57,16.57,0,0,1,6.08-.01,0.763,0.763,0,1,0,.28-1.5A18.076,18.076,0,0,0,1395.67,3082.64Zm3.33-7.53a4.9,4.9,0,0,0,4.07-2.16,0.771,0.771,0,0,0-.2-1.07,0.78,0.78,0,0,0-1.07.21,3.376,3.376,0,0,1-5.6,0,0.78,0.78,0,0,0-1.07-.21,0.771,0.771,0,0,0-.2,1.07A4.9,4.9,0,0,0,1399,3075.11Zm4.59,12.18a6.73,6.73,0,1,0,6.73-6.74A6.739,6.739,0,0,0,1403.59,3087.29Zm6.73-5.2a5.2,5.2,0,1,1-5.2,5.2A5.209,5.209,0,0,1,1410.32,3082.09Zm0,8.85a3.7,3.7,0,0,0,3.05-1.62,0.782,0.782,0,0,0-.21-1.07,0.768,0.768,0,0,0-1.06.21,2.143,2.143,0,0,1-3.56,0,0.782,0.782,0,0,0-1.07-.21,0.771,0.771,0,0,0-.2,1.07A3.7,3.7,0,0,0,1410.32,3090.94Zm-22.64,3.08a6.735,6.735,0,1,0-6.73-6.73A6.739,6.739,0,0,0,1387.68,3094.02Zm0-11.93a5.2,5.2,0,1,1-5.2,5.2A5.2,5.2,0,0,1,1387.68,3082.09Zm0,8.85a3.7,3.7,0,0,0,3.05-1.62,0.771,0.771,0,0,0-.2-1.07,0.782,0.782,0,0,0-1.07.21,2.143,2.143,0,0,1-3.56,0,0.768,0.768,0,0,0-1.06-.21,0.782,0.782,0,0,0-.21,1.07A3.7,3.7,0,0,0,1387.68,3090.94Zm0,4.61a12.718,12.718,0,0,0-12.7,12.7,0.77,0.77,0,0,0,1.54,0,11.165,11.165,0,1,1,22.33,0,0.765,0.765,0,0,0,1.53,0A12.718,12.718,0,0,0,1387.68,3095.55Zm22.64,0a12.631,12.631,0,0,0-10.11,5.01,0.767,0.767,0,1,0,1.22.93,11.162,11.162,0,0,1,20.05,6.76,0.768,0.768,0,0,0,.77.76,0.76,0.76,0,0,0,.76-0.76A12.709,12.709,0,0,0,1410.32,3095.55Z" transform="translate(-1375 -3061)"/>
</svg>
