<svg xmlns="http://www.w3.org/2000/svg" width="42.125" height="24" viewBox="0 0 42.125 24">
  <metadata><?xpacket begin="﻿" id="W5M0MpCehiHzreSzNTczkc9d"?>
<x:xmpmeta xmlns:x="adobe:ns:meta/" x:xmptk="Adobe XMP Core 5.6-c138 79.159824, 2016/09/14-01:09:01        ">
   <rdf:RDF xmlns:rdf="http://www.w3.org/1999/02/22-rdf-syntax-ns#">
      <rdf:Description rdf:about=""/>
   </rdf:RDF>
</x:xmpmeta>
                                                                                                    
                                                                                                    
                                                                                                    
                                                                                                    
                                                                                                    
                                                                                                    
                                                                                                    
                                                                                                    
                                                                                                    
                                                                                                    
                                                                                                    
                                                                                                    
                                                                                                    
                                                                                                    
                                                                                                    
                                                                                                    
                                                                                                    
                                                                                                    
                                                                                                    
                                                                                                    
                           
<?xpacket end="w"?></metadata>
<defs>
    <style>
      .cls-1 {
        fill-rule: evenodd;
      }
    </style>
  </defs>
  <path id="icon_address_delivery" class="cls-1" d="M349.319,931.994h-6a0.75,0.75,0,0,0-.751.75v7.5a0.751,0.751,0,0,0,1.5,0V938h5.253a0.75,0.75,0,0,0,.75-0.75v-4.5A0.75,0.75,0,0,0,349.319,931.994ZM333.307,948.5H328.84a1.5,1.5,0,1,1,0-3h12.268a2.252,2.252,0,1,0,0-1.5H328.84a3,3,0,1,0,0,6h4.467a1.5,1.5,0,1,1,0,3H315.3a2.251,2.251,0,1,0,0,1.5h18.01A3,3,0,1,0,333.307,948.5ZM313.184,936.5a5.258,5.258,0,0,0-5.253,5.253c0,2.695,4.214,7.469,4.694,8a0.751,0.751,0,0,0,1.117,0c0.48-.536,4.694-5.31,4.694-8A5.258,5.258,0,0,0,313.184,936.5Zm0,7.5a2.251,2.251,0,1,1,2.251-2.251A2.253,2.253,0,0,1,313.184,944Z" transform="translate(-307.938 -932)"/>
</svg>
