<svg xmlns="http://www.w3.org/2000/svg" width="24" height="24" viewBox="0 0 24 24">
  <metadata><?xpacket begin="﻿" id="W5M0MpCehiHzreSzNTczkc9d"?>
<x:xmpmeta xmlns:x="adobe:ns:meta/" x:xmptk="Adobe XMP Core 5.6-c138 79.159824, 2016/09/14-01:09:01        ">
   <rdf:RDF xmlns:rdf="http://www.w3.org/1999/02/22-rdf-syntax-ns#">
      <rdf:Description rdf:about=""/>
   </rdf:RDF>
</x:xmpmeta>
                                                                                                    
                                                                                                    
                                                                                                    
                                                                                                    
                                                                                                    
                                                                                                    
                                                                                                    
                                                                                                    
                                                                                                    
                                                                                                    
                                                                                                    
                                                                                                    
                                                                                                    
                                                                                                    
                                                                                                    
                                                                                                    
                                                                                                    
                                                                                                    
                                                                                                    
                                                                                                    
                           
<?xpacket end="w"?></metadata>
<defs>
    <style>
      .cls-1 {
        fill: #040707;
        fill-rule: evenodd;
      }
    </style>
  </defs>
  <path id="icon_sort_1" class="cls-1" d="M643,926h2.844a2,2,0,0,1,2,2v2.844a2,2,0,0,1-2,2H643a2,2,0,0,1-2-2V928A2,2,0,0,1,643,926Zm8.563,0h2.874a2,2,0,0,1,2,2v2.844a2,2,0,0,1-2,2h-2.874a2,2,0,0,1-2-2V928A2,2,0,0,1,651.563,926Zm8.593,0H663a2,2,0,0,1,2,2v2.844a2,2,0,0,1-2,2h-2.844a2,2,0,0,1-2-2V928A2,2,0,0,1,660.156,926ZM643,934.562h2.844a2,2,0,0,1,2,2v2.875a2,2,0,0,1-2,2H643a2,2,0,0,1-2-2v-2.875A2,2,0,0,1,643,934.562Zm8.563,0h2.874a2,2,0,0,1,2,2v2.875a2,2,0,0,1-2,2h-2.874a2,2,0,0,1-2-2v-2.875A2,2,0,0,1,651.563,934.562Zm8.593,0H663a2,2,0,0,1,2,2v2.875a2,2,0,0,1-2,2h-2.844a2,2,0,0,1-2-2v-2.875A2,2,0,0,1,660.156,934.562ZM643,943.156h2.844a2,2,0,0,1,2,2V948a2,2,0,0,1-2,2H643a2,2,0,0,1-2-2v-2.844A2,2,0,0,1,643,943.156Zm8.563,0h2.874a2,2,0,0,1,2,2V948a2,2,0,0,1-2,2h-2.874a2,2,0,0,1-2-2v-2.844A2,2,0,0,1,651.563,943.156Zm8.593,0H663a2,2,0,0,1,2,2V948a2,2,0,0,1-2,2h-2.844a2,2,0,0,1-2-2v-2.844A2,2,0,0,1,660.156,943.156Z" transform="translate(-641 -926)"/>
</svg>
