<svg xmlns="http://www.w3.org/2000/svg" width="35.812" height="32" viewBox="0 0 35.812 32">
  <metadata><?xpacket begin="﻿" id="W5M0MpCehiHzreSzNTczkc9d"?>
<x:xmpmeta xmlns:x="adobe:ns:meta/" x:xmptk="Adobe XMP Core 5.6-c138 79.159824, 2016/09/14-01:09:01        ">
   <rdf:RDF xmlns:rdf="http://www.w3.org/1999/02/22-rdf-syntax-ns#">
      <rdf:Description rdf:about=""/>
   </rdf:RDF>
</x:xmpmeta>
                                                                                                    
                                                                                                    
                                                                                                    
                                                                                                    
                                                                                                    
                                                                                                    
                                                                                                    
                                                                                                    
                                                                                                    
                                                                                                    
                                                                                                    
                                                                                                    
                                                                                                    
                                                                                                    
                                                                                                    
                                                                                                    
                                                                                                    
                                                                                                    
                                                                                                    
                                                                                                    
                           
<?xpacket end="w"?></metadata>
<defs>
    <style>
      .cls-1 {
        fill: #fff;
        fill-rule: evenodd;
      }
    </style>
  </defs>
  <path id="icon_bedroom" class="cls-1" d="M247.891,239.923a0.7,0.7,0,1,0,.205.5A0.7,0.7,0,0,0,247.891,239.923Zm25.317-6.077h-2.1v-1.712H273.2a0.7,0.7,0,0,0,.687-0.827l-0.8-4.322a0.7,0.7,0,0,0-.688-0.571h-3.978a0.7,0.7,0,0,0-.688.571l-0.8,4.322a0.7,0.7,0,0,0,.688.827h2.093v1.712h-2.1a0.7,0.7,0,0,0-.534.249,3.946,3.946,0,0,0-1.984-1.018v-3.564a2.661,2.661,0,0,0-2.658-2.657h-4.477a2.655,2.655,0,0,0-1.959.863,2.651,2.651,0,0,0-1.958-.863h-4.477a2.66,2.66,0,0,0-2.658,2.657v3.564a3.937,3.937,0,0,0-1.985,1.018,0.7,0.7,0,0,0-.534-0.249h-2.1v-1.712h2.094a0.7,0.7,0,0,0,.688-0.827l-0.8-4.322a0.7,0.7,0,0,0-.688-0.571H239.6a0.7,0.7,0,0,0-.688.571l-0.8,4.322a0.7,0.7,0,0,0,.687.827h2.094v1.712h-2.1a0.7,0.7,0,0,0-.7.7v9.763a0.7,0.7,0,0,0,.7.7h34.416a0.7,0.7,0,0,0,.7-0.7v-9.763A0.7,0.7,0,0,0,273.208,233.846Zm-33.57-3.11,0.544-2.924H243l0.544,2.924h-3.9Zm4.05,6.221v6.652h-4.2v-8.365h4.2v1.713Zm13.012-7.444a1.261,1.261,0,0,1,1.259-1.259h4.477a1.261,1.261,0,0,1,1.259,1.259v3.5h-7v-3.5h0Zm-8.394,0a1.261,1.261,0,0,1,1.259-1.259h4.477a1.261,1.261,0,0,1,1.259,1.259v3.5h-6.995v-3.5h0Zm18.607,10.2H250.184a0.7,0.7,0,1,0,0,1.4h16.729v2.493H245.087V237.2h4.6a0.7,0.7,0,1,0,0-1.4h-4.327a2.557,2.557,0,0,1,2.277-1.4h16.718a2.555,2.555,0,0,1,2.554,2.551v2.761h0Zm1.545-8.982L269,227.812h2.816l0.544,2.924h-3.9Zm4.051,12.873h-4.2v-8.365h4.2v8.365Zm-18.715-30.616H243.342a0.7,0.7,0,0,0-.7.7v7.269a0.7,0.7,0,0,0,.7.7h10.452a0.7,0.7,0,0,0,.7-0.7v-7.269A0.7,0.7,0,0,0,253.794,212.993Zm-0.7,7.27h-9.052v-5.872h9.052v5.872Zm15.565-7.27H258.207a0.7,0.7,0,0,0-.7.7v7.269a0.7,0.7,0,0,0,.7.7h10.452a0.7,0.7,0,0,0,.7-0.7v-7.269A0.7,0.7,0,0,0,268.659,212.993Zm-0.7,7.27h-9.052v-5.872h9.052v5.872Zm-14.6,15.745a0.7,0.7,0,1,0,.205.494A0.706,0.706,0,0,0,253.357,236.008Z" transform="translate(-238.094 -213)"/>
</svg>
