<svg xmlns="http://www.w3.org/2000/svg" xmlns:xlink="http://www.w3.org/1999/xlink" width="33.68" height="32" viewBox="0 0 33.68 32">
  <metadata><?xpacket begin="﻿" id="W5M0MpCehiHzreSzNTczkc9d"?>
<x:xmpmeta xmlns:x="adobe:ns:meta/" x:xmptk="Adobe XMP Core 5.6-c138 79.159824, 2016/09/14-01:09:01        ">
   <rdf:RDF xmlns:rdf="http://www.w3.org/1999/02/22-rdf-syntax-ns#">
      <rdf:Description rdf:about=""/>
   </rdf:RDF>
</x:xmpmeta>
                                                                                                    
                                                                                                    
                                                                                                    
                                                                                                    
                                                                                                    
                                                                                                    
                                                                                                    
                                                                                                    
                                                                                                    
                                                                                                    
                                                                                                    
                                                                                                    
                                                                                                    
                                                                                                    
                                                                                                    
                                                                                                    
                                                                                                    
                                                                                                    
                                                                                                    
                                                                                                    
                           
<?xpacket end="w"?></metadata>
<defs>
    <style>
      .cls-1 {
        fill: #fff;
        fill-rule: evenodd;
        filter: url(#filter);
      }
    </style>
    <filter id="filter" x="1217.16" y="207" width="33.68" height="32" filterUnits="userSpaceOnUse">
      <feFlood result="flood" flood-color="#fff"/>
      <feComposite result="composite" operator="in" in2="SourceGraphic"/>
      <feBlend result="blend" in2="SourceGraphic"/>
    </filter>
  </defs>
  <path id="icon_office" class="cls-1" d="M1245.79,222.158h-0.84a0.842,0.842,0,0,0,0-1.683h-1.69a0.842,0.842,0,0,0,0,1.683h-5.89a0.842,0.842,0,0,0,0-1.683h-2.53v-1.683h6.74a1.68,1.68,0,0,0,1.68-1.683v-8.416a1.68,1.68,0,0,0-1.68-1.683h-15.16a1.68,1.68,0,0,0-1.68,1.683v8.416a1.68,1.68,0,0,0,1.68,1.683h6.74v1.683h-2.53a0.842,0.842,0,0,0,0,1.683h-8.42a5.052,5.052,0,0,0-5.05,5.049v11.782h10.1V223.841h18.53a3.369,3.369,0,0,1,3.37,3.366v11.782h1.68V227.207A5.052,5.052,0,0,0,1245.79,222.158Zm-20.21,15.148h-6.74v-5.049h6.74v5.049Zm0-6.732h-6.74v-3.367a3.369,3.369,0,0,1,3.37-3.366h3.37v6.733Zm0.84-13.465v-8.416h15.16v8.416h-15.16Zm-3.37,16.831h-1.68a0.842,0.842,0,1,0,0,1.683h1.68A0.842,0.842,0,0,0,1223.05,233.94Zm0-6.733h-1.68a0.842,0.842,0,1,0,0,1.683h1.68A0.842,0.842,0,0,0,1223.05,227.207Zm22.74-1.683h-3.37a1.68,1.68,0,0,0-1.68,1.683v10.1a1.68,1.68,0,0,0,1.68,1.683h3.37a1.688,1.688,0,0,0,1.69-1.683v-10.1A1.689,1.689,0,0,0,1245.79,225.524Zm0,11.782h-3.37v-10.1h3.37v10.1Z" transform="translate(-1217.16 -207)"/>
</svg>
