<svg xmlns="http://www.w3.org/2000/svg" width="20" height="20" viewBox="0 0 20 20">
  <metadata><?xpacket begin="﻿" id="W5M0MpCehiHzreSzNTczkc9d"?>
<x:xmpmeta xmlns:x="adobe:ns:meta/" x:xmptk="Adobe XMP Core 5.6-c138 79.159824, 2016/09/14-01:09:01        ">
   <rdf:RDF xmlns:rdf="http://www.w3.org/1999/02/22-rdf-syntax-ns#">
      <rdf:Description rdf:about=""/>
   </rdf:RDF>
</x:xmpmeta>
                                                                                                    
                                                                                                    
                                                                                                    
                                                                                                    
                                                                                                    
                                                                                                    
                                                                                                    
                                                                                                    
                                                                                                    
                                                                                                    
                                                                                                    
                                                                                                    
                                                                                                    
                                                                                                    
                                                                                                    
                                                                                                    
                                                                                                    
                                                                                                    
                                                                                                    
                                                                                                    
                           
<?xpacket end="w"?></metadata>
<defs>
    <style>
      .cls-1 {
        fill-rule: evenodd;
      }
    </style>
  </defs>
  <path id="icon_info" class="cls-1" d="M464.758,3917.63h-0.273l0-6.17a0.768,0.768,0,0,0-.774-0.75h-2.472a0.77,0.77,0,1,0,0,1.54h0.424v5.38h-0.273a0.77,0.77,0,0,0-.775.77,0.778,0.778,0,0,0,.775.78h3.365a0.778,0.778,0,0,0,.775-0.78A0.77,0.77,0,0,0,464.758,3917.63Zm-1.681-10.81a1.63,1.63,0,1,1-1.626,1.63A1.628,1.628,0,0,1,463.077,3906.82Zm5.775-3.83h-11.7a4.164,4.164,0,0,0-4.154,4.16v11.7a4.164,4.164,0,0,0,4.154,4.16h11.7a4.164,4.164,0,0,0,4.154-4.16v-11.7A4.164,4.164,0,0,0,468.852,3902.99Zm3.394,15.86a3.4,3.4,0,0,1-3.394,3.4h-11.7a3.4,3.4,0,0,1-3.394-3.4v-11.7a3.4,3.4,0,0,1,3.394-3.4h11.7a3.4,3.4,0,0,1,3.394,3.4v11.7Z" transform="translate(-453 -3903)"/>
</svg>
