<svg xmlns="http://www.w3.org/2000/svg" width="32" height="32" viewBox="0 0 32 32">
  <metadata><?xpacket begin="﻿" id="W5M0MpCehiHzreSzNTczkc9d"?>
<x:xmpmeta xmlns:x="adobe:ns:meta/" x:xmptk="Adobe XMP Core 5.6-c138 79.159824, 2016/09/14-01:09:01        ">
   <rdf:RDF xmlns:rdf="http://www.w3.org/1999/02/22-rdf-syntax-ns#">
      <rdf:Description rdf:about=""/>
   </rdf:RDF>
</x:xmpmeta>
                                                                                                    
                                                                                                    
                                                                                                    
                                                                                                    
                                                                                                    
                                                                                                    
                                                                                                    
                                                                                                    
                                                                                                    
                                                                                                    
                                                                                                    
                                                                                                    
                                                                                                    
                                                                                                    
                                                                                                    
                                                                                                    
                                                                                                    
                                                                                                    
                                                                                                    
                                                                                                    
                           
<?xpacket end="w"?></metadata>
<defs>
    <style>
      .cls-1 {
        fill: #fff;
        fill-rule: evenodd;
      }
    </style>
  </defs>
  <path id="icon_closet" class="cls-1" d="M244.8,248.538h8.538a0.534,0.534,0,0,0,.534-0.534v-3.2a0.534,0.534,0,0,0-.534-0.533H244.8a0.533,0.533,0,0,0-.533.533V248A0.534,0.534,0,0,0,244.8,248.538Zm0.534-3.2h7.47v2.134h-7.47v-2.134Zm-0.534,8.538h8.538a0.534,0.534,0,0,0,.534-0.534v-3.2a0.534,0.534,0,0,0-.534-0.533H244.8a0.533,0.533,0,0,0-.533.533v3.2A0.534,0.534,0,0,0,244.8,253.874Zm0.534-3.2h7.47v2.134h-7.47v-2.134Zm4.269-4.8h-1.067a0.534,0.534,0,1,0,0,1.067h1.067A0.534,0.534,0,0,0,249.605,245.87Zm0.533,5.336h-1.6a0.534,0.534,0,1,0,0,1.067h1.6A0.534,0.534,0,1,0,250.138,251.206Zm5.336-27.214H224.526a0.534,0.534,0,0,0-.534.534v30.948a0.534,0.534,0,0,0,.534.534h30.948a0.534,0.534,0,0,0,.534-0.534V224.526A0.534,0.534,0,0,0,255.474,223.992Zm-19.743,1.067h12.807v1.6H235.731v-1.6Zm10.672,5.87v6.937h-1.067v-6.937A0.534,0.534,0,1,1,246.4,230.929Zm-3.735,0v8H241.6v-8A0.534,0.534,0,1,1,242.668,230.929Zm-3.735,0v8h-1.067v-8A0.534,0.534,0,1,1,238.933,230.929Zm-3.2-3.2h2.135v1.7a1.6,1.6,0,0,0-1.068,1.5v8.537a0.534,0.534,0,0,0,.534.534h2.134a0.534,0.534,0,0,0,.534-0.534v-8.537a1.6,1.6,0,0,0-1.067-1.5v-1.7H241.6v1.7a1.6,1.6,0,0,0-1.067,1.5v8.537a0.534,0.534,0,0,0,.533.534H243.2a0.534,0.534,0,0,0,.533-0.534v-8.537a1.6,1.6,0,0,0-1.067-1.5v-1.7h2.668v1.7a1.6,1.6,0,0,0-1.067,1.5v7.47a0.534,0.534,0,0,0,.533.534h2.135a0.534,0.534,0,0,0,.533-0.534v-7.47a1.6,1.6,0,0,0-1.067-1.5v-1.7h2.135v14.407H235.731V227.727Zm-1.067,27.214h-9.6V225.059h9.6v29.882Zm7.47,0h-6.4V243.2h6.4v11.739Zm12.807,0H243.2V243.2h11.739v11.739Zm0-12.807h-5.336v-4.268h5.336v4.268Zm0-5.336h-5.336v-6.4h5.336v6.4Zm0-7.47h-5.336v-4.269h5.336v4.269ZM236.8,246.937h4.269a0.534,0.534,0,0,0,.534-0.534v-2.134a0.534,0.534,0,0,0-.534-0.534H236.8a0.534,0.534,0,0,0-.533.534V246.4A0.534,0.534,0,0,0,236.8,246.937Zm0.534-2.135h3.2v1.068h-3.2V244.8Zm-0.534,5.87h4.269a0.534,0.534,0,0,0,.534-0.534V248a0.534,0.534,0,0,0-.534-0.534H236.8a0.534,0.534,0,0,0-.533.534v2.134A0.534,0.534,0,0,0,236.8,250.672Zm0.534-2.134h3.2v1.067h-3.2v-1.067Zm-0.534,5.869h4.269a0.534,0.534,0,0,0,.534-0.533v-2.135a0.534,0.534,0,0,0-.534-0.533H236.8a0.533,0.533,0,0,0-.533.533v2.135A0.533,0.533,0,0,0,236.8,254.407Zm0.534-2.134h3.2v1.067h-3.2v-1.067Z" transform="translate(-224 -224)"/>
</svg>
