<svg xmlns="http://www.w3.org/2000/svg" viewBox="0 0 31 31"><defs><style>.cls-1{fill:#040707;fill-opacity:0;stroke:#ea3c27;stroke-linejoin:round;}.cls-2{fill:#d23623;}</style></defs><title>icon_password_repeat_reg</title><g id="Layer_2" data-name="Layer 2"><g id="Layer_1-2" data-name="Layer 1"><circle id="Ellipse" class="cls-1" cx="15.5" cy="15.5" r="15"/><path id="icon_password_repeat_reg" data-name="icon password repeat reg" class="cls-2" d="M16.34,11.72a4.22,4.22,0,0,0-8.44,0v2.12a5.75,5.75,0,0,0-1.53,3.9v4.65a1.1,1.1,0,0,0,1.1,1.09h9.31a1.09,1.09,0,0,0,1.09-1.09V17.74a5.71,5.71,0,0,0-1.53-3.9V11.71h0Zm-3.41,6.41v1.33a.81.81,0,0,1-1.62,0h0V18.13a1.36,1.36,0,1,1,1.62,0Zm1.57-5.62a5.7,5.7,0,0,0-4.76,0v-.79a2.38,2.38,0,0,1,4.76,0v.79Zm7.06-2.94a3.06,3.06,0,0,0-1.36,5.81v5.1a1.89,1.89,0,0,0,1.88,1.89h0a.83.83,0,0,0,.83-.83h0V15.38a3.06,3.06,0,0,0-1.36-5.81Zm0,2.52a.72.72,0,1,1,.72-.72h0a.72.72,0,0,1-.72.72Z"/></g></g></svg>