<svg xmlns="http://www.w3.org/2000/svg" width="20" height="20" viewBox="0 0 20 20">
  <metadata><?xpacket begin="﻿" id="W5M0MpCehiHzreSzNTczkc9d"?>
<x:xmpmeta xmlns:x="adobe:ns:meta/" x:xmptk="Adobe XMP Core 5.6-c138 79.159824, 2016/09/14-01:09:01        ">
   <rdf:RDF xmlns:rdf="http://www.w3.org/1999/02/22-rdf-syntax-ns#">
      <rdf:Description rdf:about=""/>
   </rdf:RDF>
</x:xmpmeta>
                                                                                                    
                                                                                                    
                                                                                                    
                                                                                                    
                                                                                                    
                                                                                                    
                                                                                                    
                                                                                                    
                                                                                                    
                                                                                                    
                                                                                                    
                                                                                                    
                                                                                                    
                                                                                                    
                                                                                                    
                                                                                                    
                                                                                                    
                                                                                                    
                                                                                                    
                                                                                                    
                           
<?xpacket end="w"?></metadata>
<defs>
    <style>
      .cls-1 {
        fill-rule: evenodd;
      }
    </style>
  </defs>
  <path id="icon_account" class="cls-1" d="M391.651,280.833H377.167V266.349a0.586,0.586,0,1,0-1.172,0v15.07a0.586,0.586,0,0,0,.586.586h15.07A0.586,0.586,0,1,0,391.651,280.833ZM395.419,262h-15.07a0.586,0.586,0,0,0-.587.586v15.07a0.587,0.587,0,0,0,.587.587h15.07a0.586,0.586,0,0,0,.586-0.587v-15.07A0.586,0.586,0,0,0,395.419,262Zm-7.535,3.767a2.47,2.47,0,1,1-2.47,2.47A2.473,2.473,0,0,1,387.884,265.762Zm-4.315,11.3a4.354,4.354,0,0,1,8.629,0h-8.629Z" transform="translate(-376 -262)"/>
</svg>
