<svg xmlns="http://www.w3.org/2000/svg" width="29.125" height="32" viewBox="0 0 29.125 32">
  <metadata><?xpacket begin="﻿" id="W5M0MpCehiHzreSzNTczkc9d"?>
<x:xmpmeta xmlns:x="adobe:ns:meta/" x:xmptk="Adobe XMP Core 5.6-c138 79.159824, 2016/09/14-01:09:01        ">
   <rdf:RDF xmlns:rdf="http://www.w3.org/1999/02/22-rdf-syntax-ns#">
      <rdf:Description rdf:about=""/>
   </rdf:RDF>
</x:xmpmeta>
                                                                                                    
                                                                                                    
                                                                                                    
                                                                                                    
                                                                                                    
                                                                                                    
                                                                                                    
                                                                                                    
                                                                                                    
                                                                                                    
                                                                                                    
                                                                                                    
                                                                                                    
                                                                                                    
                                                                                                    
                                                                                                    
                                                                                                    
                                                                                                    
                                                                                                    
                                                                                                    
                           
<?xpacket end="w"?></metadata>
<defs>
    <style>
      .cls-1 {
        fill: #fff;
        fill-rule: evenodd;
      }
    </style>
  </defs>
  <path id="icon_cradle" class="cls-1" d="M245.992,265.565v-9.409h0a2.2,2.2,0,1,0-2.734-2.735H222.742a2.206,2.206,0,0,0-1.293-1.414,11.133,11.133,0,0,1,2.775-5.554,0.627,0.627,0,1,0-.923-0.85,12.382,12.382,0,0,0-3.107,6.292,2.2,2.2,0,0,0-.186,4.261v9.409a2.2,2.2,0,0,0,0,4.214v1.594a0.628,0.628,0,0,0,1.255,0v-1.594a2.208,2.208,0,0,0,1.479-1.48h20.516a2.206,2.206,0,0,0,1.479,1.48v1.594a0.628,0.628,0,0,0,1.255,0v-1.594A2.2,2.2,0,0,0,245.992,265.565Zm-0.628-12.46a0.944,0.944,0,1,1-.943.944A0.944,0.944,0,0,1,245.364,253.105Zm-3.357,1.571h1.251a2.2,2.2,0,0,0,1.479,1.48v6.423h-2.73v-7.9h0Zm-22.315-.627a0.944,0.944,0,1,1,.944.944A0.944,0.944,0,0,1,219.692,254.049Zm0.944,14.567a0.944,0.944,0,1,1,.943-0.944A0.945,0.945,0,0,1,220.636,268.616Zm3.358-1.572h-1.252a2.207,2.207,0,0,0-1.479-1.479v-1.731h2.731v3.21h0Zm0-4.465h-2.731v-6.423a2.206,2.206,0,0,0,1.479-1.48h1.252v7.9h0Zm4.189,4.465h-2.934v-3.21h2.934v3.21Zm-2.935-4.465v-7.9h2.935v7.9h-2.935Zm7.125,4.465h-2.935v-3.21h2.935v3.21Zm0-4.465h-2.935v-7.9h2.935v7.9Zm4.19,4.465h-2.936v-3.21h2.936v3.21Zm0-4.465h-2.936v-7.9h2.936v7.9Zm4.189,4.465h-2.935v-3.21h2.935v3.21Zm0-4.465h-2.935v-7.9h2.935v7.9Zm2.506,4.465h-1.251v-3.21h2.73v1.731A2.207,2.207,0,0,0,243.258,267.044Zm2.106,1.572a0.944,0.944,0,1,1,.944-0.944A0.945,0.945,0,0,1,245.364,268.616Zm-9.925-17.8a2.206,2.206,0,0,1,0-3.821,0.628,0.628,0,0,0,0-1.086,3.454,3.454,0,0,0-1.731-.464l-0.081,0v-1.14a2.2,2.2,0,1,0-2.762-2.628,12.31,12.31,0,0,0-4.645,1.579,0.628,0.628,0,0,0,.631,1.085,11.07,11.07,0,0,1,4.075-1.407,2.183,2.183,0,0,0,1.447,1.374v1.4a3.461,3.461,0,1,0,3.066,6.19A0.628,0.628,0,0,0,235.439,250.814Zm-3.381-8.587c0-.007,0-0.015,0-0.022V242.2A1,1,0,1,1,232.058,242.227Zm1.814,8.876c-0.054,0-.109.006-0.164,0.006a2.206,2.206,0,0,1,0-4.412q0.083,0,.165.006A3.453,3.453,0,0,0,233.872,251.1Zm-8.818-6.941a0.628,0.628,0,0,0,0,1.255A0.628,0.628,0,0,0,225.054,244.162Z" transform="translate(-218.438 -240)"/>
</svg>
