<svg xmlns="http://www.w3.org/2000/svg" viewBox="0 0 31 31"><defs><style>.cls-1{fill:#040707;fill-opacity:0;stroke:#ea3c27;stroke-linejoin:round;}.cls-2{fill:#ea3c27;}</style></defs><title>icon_password_reg</title><g id="Layer_2" data-name="Layer 2"><g id="Layer_1-2" data-name="Layer 1"><circle id="Ellipse" class="cls-1" cx="15.5" cy="15.5" r="15"/><path id="icon_password_reg" data-name="icon password reg" class="cls-2" d="M21.17,13.5h-1V12.16a4.67,4.67,0,0,0-9.35,0V13.5h-1a.33.33,0,0,0-.33.33v8.35a1.34,1.34,0,0,0,1.34,1.34h9.35a1.34,1.34,0,0,0,1.34-1.34V13.83a.33.33,0,0,0-.33-.33Zm-4.68,7a.33.33,0,0,1-.3.37H14.83a.33.33,0,0,1-.33-.33.34.34,0,0,1,0,0l.21-1.89a1.32,1.32,0,0,1-.55-1.07,1.34,1.34,0,0,1,2.67,0,1.32,1.32,0,0,1-.55,1.07Zm1.67-7H12.83V12.16a2.67,2.67,0,0,1,5.34,0Z"/></g></g></svg>