<svg xmlns="http://www.w3.org/2000/svg" width="21" height="20" viewBox="0 0 21 20">
  <metadata><?xpacket begin="﻿" id="W5M0MpCehiHzreSzNTczkc9d"?>
<x:xmpmeta xmlns:x="adobe:ns:meta/" x:xmptk="Adobe XMP Core 5.6-c138 79.159824, 2016/09/14-01:09:01        ">
   <rdf:RDF xmlns:rdf="http://www.w3.org/1999/02/22-rdf-syntax-ns#">
      <rdf:Description rdf:about=""/>
   </rdf:RDF>
</x:xmpmeta>
                                                                                                    
                                                                                                    
                                                                                                    
                                                                                                    
                                                                                                    
                                                                                                    
                                                                                                    
                                                                                                    
                                                                                                    
                                                                                                    
                                                                                                    
                                                                                                    
                                                                                                    
                                                                                                    
                                                                                                    
                                                                                                    
                                                                                                    
                                                                                                    
                                                                                                    
                                                                                                    
                           
<?xpacket end="w"?></metadata>
<defs>
    <style>
      .cls-1 {
        fill-rule: evenodd;
      }
    </style>
  </defs>
  <path id="icon_support" class="cls-1" d="M1312.49,3910.93a7.99,7.99,0,0,0-15.98,0,4.377,4.377,0,0,0,1.8,8.33h0.62v-8.74h-0.62a4.907,4.907,0,0,0-.55.04,6.754,6.754,0,0,1,13.48,0,4.907,4.907,0,0,0-.55-0.04h-0.62v8.74h0.62a3.559,3.559,0,0,0,.57-0.04v1.29h-3.69v-1.25h-3.07a1.87,1.87,0,0,0,0,3.74h3.07v-1.24h4.92v-2.9A4.394,4.394,0,0,0,1312.49,3910.93Zm-14.79,7.02a3.133,3.133,0,0,1,0-6.12v6.12Zm8.64,3.81h-1.84a0.625,0.625,0,0,1,0-1.25h1.84v1.25Zm4.96-3.81v-6.12A3.133,3.133,0,0,1,1311.3,3917.95Z" transform="translate(-1294 -3903)"/>
</svg>
