<svg xmlns="http://www.w3.org/2000/svg" viewBox="0 0 31 31"><defs><style>.cls-1{fill:red;fill-opacity:0;stroke:#ea3c27;stroke-linejoin:round;}.cls-2{fill:#ea3c27;}</style></defs><title>icon_group_reg</title><g id="Layer_2" data-name="Layer 2"><g id="Layer_1-2" data-name="Layer 1"><circle id="Ellipse" class="cls-1" cx="15.5" cy="15.5" r="15"/><path id="icon_group_reg" data-name="icon group reg" class="cls-2" d="M17.68,15h0a3.59,3.59,0,0,0,1.51-2.9,3.69,3.69,0,0,0-7.37,0A3.54,3.54,0,0,0,13.32,15C9.56,16.29,9,20.77,8.88,22.11a.34.34,0,0,0,.1.26.36.36,0,0,0,.26.11H21.76a.36.36,0,0,0,.26-.11.35.35,0,0,0,.1-.26C22,20.78,21.44,16.31,17.68,15Zm4.88.17a2.37,2.37,0,0,0,1-1.91,2.41,2.41,0,0,0-2.43-2.37,2.46,2.46,0,0,0-1.07.25,4.43,4.43,0,0,1-.74,3.59,8.36,8.36,0,0,1,3.49,5.39h2.46a.24.24,0,0,0,.17-.07.23.23,0,0,0,.06-.17C25.43,19,25,16,22.56,15.17Zm-10.87-.45A4.44,4.44,0,0,1,11,11.13a2.46,2.46,0,0,0-1.07-.25,2.41,2.41,0,0,0-2.43,2.38,2.34,2.34,0,0,0,1,1.91C6,16,5.57,19,5.51,19.87a.23.23,0,0,0,.06.17.24.24,0,0,0,.17.07H8.2a8.35,8.35,0,0,1,3.49-5.39Z"/></g></g></svg>