<svg xmlns="http://www.w3.org/2000/svg" width="41.5" height="40" viewBox="0 0 41.5 40">
  <metadata><?xpacket begin="﻿" id="W5M0MpCehiHzreSzNTczkc9d"?>
<x:xmpmeta xmlns:x="adobe:ns:meta/" x:xmptk="Adobe XMP Core 5.6-c138 79.159824, 2016/09/14-01:09:01        ">
   <rdf:RDF xmlns:rdf="http://www.w3.org/1999/02/22-rdf-syntax-ns#">
      <rdf:Description rdf:about=""/>
   </rdf:RDF>
</x:xmpmeta>
                                                                                                    
                                                                                                    
                                                                                                    
                                                                                                    
                                                                                                    
                                                                                                    
                                                                                                    
                                                                                                    
                                                                                                    
                                                                                                    
                                                                                                    
                                                                                                    
                                                                                                    
                                                                                                    
                                                                                                    
                                                                                                    
                                                                                                    
                                                                                                    
                                                                                                    
                                                                                                    
                           
<?xpacket end="w"?></metadata>
<defs>
    <style>
      .cls-1 {
        fill-rule: evenodd;
      }
    </style>
  </defs>
  <path id="icon_in_stock" class="cls-1" d="M881.665,339.556a2.223,2.223,0,1,0,2.223,2.223A2.226,2.226,0,0,0,881.665,339.556Zm24.447,0a2.223,2.223,0,1,0,2.222,2.223A2.225,2.225,0,0,0,906.112,339.556Zm-5.927,0h-2.963a0.741,0.741,0,0,0,0,1.482h2.963A0.741,0.741,0,1,0,900.185,339.556Zm0,2.964h-5.926a0.741,0.741,0,1,0,0,1.481h5.926A0.741,0.741,0,1,0,900.185,342.52Zm2.223-31.114v8.149a0.741,0.741,0,0,1-.741.741h-7.408a0.741,0.741,0,0,1-.741-0.741v-8.149h-5.926V333.63h20.742V311.406h-5.926Zm-10.371,19.261h-2.964v-1.482h2.964v1.482Zm0-2.963h-2.964v-1.482h2.964V327.7ZM895,330.667h-1.482v-4.445H895v4.445Zm-17.779-22.224h2.963v29.632h-2.963V308.443ZM895,311.406h5.926v7.408H895v-7.408Zm16.3,24.163v2.506l4.445,2.222v-2.505ZM874.257,304h5.927v2.963h-5.927V304Zm7.408,31.114h28.151v2.963H881.665v-2.963Z" transform="translate(-874.25 -304)"/>
</svg>
